<?xml version="1.0" encoding="utf-8"?>
<!-- Generator: Adobe Illustrator 19.0.0, SVG Export Plug-In . SVG Version: 6.00 Build 0)  -->
<svg version="1.1" id="Capa_1" xmlns="http://www.w3.org/2000/svg" xmlns:xlink="http://www.w3.org/1999/xlink" x="0px" y="0px"
	 viewBox="-48 50.1 981.9 981.9" style="enable-background:new -48 50.1 981.9 981.9;" xml:space="preserve">
<style type="text/css">
	.st0{fill:#FFFFFF;}
</style>
<g>
	<path class="st0" d="M813,913.1c0-30.4-24.6-55-55-55H127.9c-30.4,0-55,24.6-55,55s24.6,55,55,55H758
		C788.4,968.1,813,943.4,813,913.1z"/>
	<path class="st0" d="M17.4,467.9c0.9,0,1.7,0,2.6-0.1l87.2,315.6H443h335.7l87.2-315.6c0.9,0,1.7,0.1,2.6,0.1
		c36.1,0,65.4-29.3,65.4-65.4s-29.3-65.4-65.4-65.4s-65.4,29.3-65.4,65.4c0,7,1.1,13.8,3.2,20.1l-157.7,92.2l-169.5-281
		c17.6-11.7,29.3-31.8,29.3-54.5c0-36.1-29.3-65.4-65.4-65.4s-65.4,29.3-65.4,65.4c0,22.8,11.6,42.8,29.3,54.5l-169.5,281
		L79.7,422.6c2-6.3,3.2-13.1,3.2-20.1c0-36.1-29.3-65.4-65.4-65.4c-36.2,0-65.5,29.3-65.5,65.4S-18.7,467.9,17.4,467.9z"/>
</g>
</svg>
