<?xml version="1.0" standalone="no"?>
<!DOCTYPE svg PUBLIC "-//W3C//DTD SVG 1.1//EN" "http://www.w3.org/Graphics/SVG/1.1/DTD/svg11.dtd" >
<svg xmlns="http://www.w3.org/2000/svg">
<metadata>Generated by IcoMoon</metadata>
<defs>
<font id="icomoon" horiz-adv-x="1024">
<font-face units-per-em="1024" ascent="960" descent="-64" />
<missing-glyph horiz-adv-x="1024" />
<glyph unicode="&#x20;" horiz-adv-x="512" d="" />
<glyph unicode="&#xe900;" glyph-name="alarm" d="M512 832c-247.424 0-448-200.576-448-448s200.576-448 448-448 448 200.576 448 448-200.576 448-448 448zM512 24c-198.816 0-360 161.184-360 360s161.184 360 360 360c198.816 0 360-161.184 360-360s-161.184-360-360-360zM934.784 672.832c16.032 28.064 25.216 60.544 25.216 95.168 0 106.048-85.952 192-192 192-61.824 0-116.8-29.216-151.904-74.592 131.872-27.232 245.216-105.184 318.72-212.576v0zM407.936 885.408c-35.104 45.376-90.112 74.592-151.936 74.592-106.048 0-192-85.952-192-192 0-34.624 9.184-67.136 25.216-95.168 73.504 107.392 186.816 185.344 318.72 212.576zM512 384v256h-64v-320h256v64z" />
<glyph unicode="&#xe901;" glyph-name="logo-id" d="M901.803 679.424c-128.341 57.003-358.741 62.464-384.341 62.805h-0.341l-16.043-37.205 1.024 0.341c5.461 1.024 11.264 1.365 16.725 1.365 56.661 0 102.741-46.080 102.741-102.741s-46.080-102.741-102.741-102.741c-33.792 0-65.536 16.725-84.651 44.715l-0.683 1.024-122.88-288.085-0.341-1.024h1.024c46.763 0 101.376-0.341 139.264-0.341h0.683l-20.821 125.611c0 0.341-4.779 23.893 11.264 33.792 15.701 9.899 300.715 127.317 321.536 135.851l-13.653-58.368-121.515-109.568-31.403-126.976h0.683c83.968 0 188.757 0.341 213.333 1.024 29.355 0.683 38.571 51.2 38.912 53.248 0.683 3.072 66.219 295.253 71.339 336.555 3.072 23.552-18.773 30.72-19.115 30.72zM972.8 754.859c-82.944 37.888-174.080 54.613-263.851 65.536-64.171 7.851-129.707 12.971-194.56 12.971-73.387 0-147.115-6.485-219.477-16.384-44.715-6.144-89.429-13.995-133.12-25.6-35.84-9.216-74.411-20.139-107.179-38.229-29.355-16.043-48.128-47.445-48.128-80.555 0-16.384 3.755-33.451 6.485-49.493 8.533-49.493 18.432-98.987 27.989-148.48 16.384-83.968 31.061-168.619 50.859-251.904 4.779-19.797 14.336-38.912 26.965-54.613 21.163-25.6 49.152-32.427 80.896-32.768 70.656-1.024 140.971-0.683 211.627-1.024 9.899 0 19.797 0 29.696 0 1.024-7.168 2.389-13.995 3.413-21.163-21.163 0-42.325 0-63.488 0-16.384 0-34.133 2.389-46.763-10.581-10.24-10.581-19.456-22.869-29.013-34.133-9.216-10.923-21.504-22.187-29.013-34.475-13.653-23.552 7.509-45.739 30.72-46.421 21.504-0.683 43.008 0 64.853 0 81.237 0 162.475 0 243.712 0 30.379 0 61.099 0 91.477 0 6.144 0 12.629-0.341 18.773 0 28.331 1.365 41.301 30.72 23.552 52.565-11.947 14.677-24.576 28.672-36.864 43.008-12.629 14.677-22.187 29.013-44.032 30.037-25.259 1.024-50.859 0.683-76.117 0.341 1.707 6.827 3.413 13.995 5.12 20.821 79.189 0 158.379-0.341 237.227 1.024 18.773 0.341 37.205 2.389 53.589 12.629s29.696 25.941 38.229 43.349c6.485 12.971 10.923 25.941 13.653 39.936 24.576 118.784 48.811 237.568 70.997 357.035 4.437 24.917 9.557 49.835 12.288 75.093 4.096 35.84-15.701 76.459-50.517 91.477zM1016.149 662.699c-2.731-24.576-7.509-48.811-11.947-73.045-21.845-119.125-46.421-238.251-70.997-357.035-2.731-13.312-6.827-25.941-12.971-38.229-8.192-16.384-20.139-31.061-35.499-40.619s-32.427-11.264-50.176-11.605c-80.896-1.365-162.133-1.024-243.029-1.024-3.072-11.947-5.803-23.552-8.875-35.499 28.331 0.341 57.003 1.365 85.333 0 18.773-1.024 27.648-14.677 38.912-27.989 12.288-14.336 24.917-28.331 36.864-43.008 13.995-17.067 3.413-39.253-18.432-40.277-6.144-0.341-12.629 0-18.773 0-30.379 0-61.099 0-91.477 0-81.237 0-162.475 0-243.712 0-21.504 0-43.349-0.683-64.853 0-17.749 0.341-35.499 16.725-24.576 35.499 7.168 11.947 18.773 22.528 27.648 33.109 9.557 11.264 18.432 23.552 29.013 34.133 10.923 10.923 27.307 8.533 41.643 8.533 23.893 0 47.787 0 72.021 0-2.048 11.947-3.755 23.552-5.803 35.499-11.947 0-23.893 0-35.499 0-70.656 0-140.971-0.341-211.627 1.024-29.696 0.341-55.979 6.485-75.776 30.72-11.947 14.677-20.821 32.768-25.259 51.541-19.456 83.285-34.475 167.936-50.859 251.904-9.557 49.493-19.456 98.987-27.989 148.48-2.048 15.701-5.803 31.744-5.803 47.787 0 30.72 17.408 59.733 44.373 74.752 32.085 17.749 70.315 28.331 105.472 37.547 43.691 11.264 88.405 19.456 133.12 25.6 72.021 9.899 145.067 16.043 217.771 16.384 64.853 0 130.048-5.12 194.56-12.971 88.747-10.923 178.517-27.307 260.437-64.512 32.427-15.019 50.517-52.224 46.763-86.699zM958.123 729.941c-83.285 38.571-198.997 56.661-281.941 65.195-89.429 9.216-160.427 9.216-161.109 9.216s-71.68 0-161.109-9.216c-82.603-8.533-198.656-26.624-281.941-65.195-0.341-0.341-40.96-17.749-36.864-63.829 4.437-50.859 83.285-432.128 84.309-436.224 0-0.683 13.995-64.171 64.512-65.536 33.451-1.024 188.075-1.365 277.163-1.365 1.365 0 2.731 0 4.096 0l12.971-79.189h-119.467c-0.683 0-3.755 0-5.12-3.413l-52.224-61.44v-0.341c0-0.683 0-1.365 0.341-1.707 0.341-0.683 1.365-0.683 1.365-0.683h423.936c0.341 0 1.024 0 1.365 0.683 0.341 0.341 0.683 1.024 0.341 2.048v0.341l-52.565 61.099c-2.048 3.413-5.803 3.755-6.827 3.755-0.341 0-0.341 0-0.341 0h-104.107l-9.899-27.307c-1.365-1.365-14.677-13.653-34.133-13.653-9.557 0-18.773 3.072-27.989 8.533 8.192-4.096 16.384-6.144 24.235-6.144 19.797 0 31.403 12.971 31.403 13.312v0l25.6 104.107c89.771 0 238.592 0.341 271.701 1.365 50.517 1.707 64.171 64.853 64.512 65.536 0.683 3.755 79.531 385.024 84.309 436.224 4.437 46.080-36.181 63.829-36.523 63.829zM102.4 696.149c143.36 65.877 409.6 68.949 412.672 68.949s269.312-3.413 413.013-68.949c1.024-0.341 22.528-7.509 19.797-32.768-5.12-45.397-75.435-366.933-76.117-370.005 0-0.683-9.899-57.003-40.619-57.685-41.643-1.024-313.344-1.024-316.075-1.024s-274.091 0.341-316.075 1.024c-30.379 0.683-40.277 57.003-40.619 57.685-0.683 3.072-70.997 324.608-76.117 370.005-2.389 25.259 19.115 32.427 20.139 32.768zM157.696 398.848l140.288 325.291c-6.827-1.024-13.312-2.048-20.139-3.413l-126.635-293.205c2.389-9.899 4.437-19.456 6.485-28.672zM344.405 730.283l-172.032-398.677c3.072-14.336 5.12-22.869 5.12-22.869s3.072-17.067 10.923-31.744l197.632 457.387c-13.312-1.024-27.307-2.389-41.643-4.096z" />
<glyph unicode="&#xe902;" glyph-name="box-add-mio" d="M832 896h-640l-192-192v-672c0-17.664 14.336-32 32-32h960c17.664 0 32 14.336 32 32v672l-192 192zM512 128l-320 256h192v192h256v-192h192l-320-256zM154.496 768l64 64h586.976l64-64h-714.976z" />
<glyph unicode="&#xe903;" glyph-name="download3-mio" d="M736 512l-256-256-256 256h160v384h192v-384zM480 256h-480v-256h960v256h-480zM896 128h-128v64h128v-64z" />
<glyph unicode="&#xe904;" glyph-name="perm_contact_calendar" d="M768 192v42.013c0 85.987-170.013 132.008-256 132.008s-256-45.992-256-132.008v-42.013h512zM512 704c-70.012 0-128-57.988-128-128s57.988-128 128-128 128 57.988 128 128-57.988 128-128 128zM810.013 832c45.992 0 85.987-39.995 85.987-85.987v-595.997c0-45.992-39.995-85.987-85.987-85.987h-595.997c-48.011 0-85.987 39.995-85.987 85.987v595.997c0 45.992 38.005 85.987 85.987 85.987h42.013v85.987h85.987v-85.987h339.997v85.987h85.987v-85.987h42.013z" />
<glyph unicode="&#xe905;" glyph-name="profile" d="M864 960h-768c-52.8 0-96-43.2-96-96v-832c0-52.8 43.2-96 96-96h768c52.8 0 96 43.2 96 96v832c0 52.8-43.2 96-96 96zM832 64h-704v768h704v-768zM256 384h448v-64h-448zM256 256h448v-64h-448zM320 672c0 53.024 42.976 96 96 96s96-42.976 96-96c0-53.024-42.976-96-96-96s-96 42.976-96 96zM480 576h-128c-52.8 0-96-28.8-96-64v-64h320v64c0 35.2-43.2 64-96 64z" />
<glyph unicode="&#xe906;" glyph-name="stars" d="M691.99 192l-48.011 206 160.007 138.006-210.008 17.993-82.008 192.015-82.008-194.004-210.008-16.004 160.007-138.006-48.011-206 179.99 107.988zM512 874.013c235.988 0 426.013-189.996 426.013-426.013s-189.996-426.013-426.013-426.013-426.013 189.996-426.013 426.013 189.996 426.013 426.013 426.013z" />
<glyph unicode="&#xe907;" glyph-name="ticket" d="M1024 345.6v-256h-1024v256c56.576 0 102.4 45.824 102.4 102.4s-45.824 102.4-102.4 102.4v0 256h1024v-256c-56.576 0-102.4-45.824-102.4-102.4s45.824-102.4 102.4-102.4v0zM153.6 704v-512h716.8v512h-716.8zM512 341.504l-149.504-104.448 52.224 175.104-144.896 109.568 182.272 4.096 59.904 172.032 59.904-172.032 182.272-4.096-145.408-110.080 52.736-174.080-149.504 103.424z" />
<glyph unicode="&#xe908;" glyph-name="user-tie" d="M320 768c0 106.048 85.952 192 192 192s192-85.952 192-192c0-106.048-85.952-192-192-192s-192 85.952-192 192zM768.064 512h-35.424l-199.104-404.256 74.464 372.256-96 96-96-96 74.464-372.256-199.104 404.256h-35.424c-127.936 0-127.936-85.984-127.936-192v-320h768v320c0 106.016 0 192-127.936 192z" />
<glyph unicode="&#xe909;" glyph-name="book" d="M896 832v-832h-672c-53.024 0-96 42.976-96 96s42.976 96 96 96h608v768h-640c-70.4 0-128-57.6-128-128v-768c0-70.4 57.6-128 128-128h768v896h-64zM224.064 128v0c-0.032 0-0.032 0-0.064 0-17.664 0-32-14.336-32-32s14.336-32 32-32c0.032 0 0.032 0 0.064 0v0h607.904v64h-607.904z" />
<glyph unicode="&#xe90a;" glyph-name="dolar" d="M382.293 363.349h75.435c1.365-36.523 32.085-54.955 65.536-54.955 34.816 0 65.536 20.139 65.536 54.955 0 37.205-35.499 54.272-65.536 55.637-3.755 0-34.816 0-67.584 14.677-47.104 21.504-73.387 61.781-73.387 114.347 0 78.165 68.267 128.683 140.971 128.683 77.824 0 138.923-53.589 140.288-128.683h-74.752c-1.365 36.523-31.403 54.955-65.536 54.955-35.499 0-65.536-19.456-65.536-54.955 0-36.523 32.085-55.637 65.536-55.637 3.072 0 34.816 0 66.901-14.677 47.787-21.504 73.387-61.781 73.387-114.347 0-78.848-67.584-128.683-140.288-128.683-77.824 2.048-139.605 51.883-140.971 128.683zM476.16 260.267h88.747v-73.387h-88.747v73.387zM476.16 725.163h88.747v-73.387h-88.747v73.387zM725.333 482.133h130.389v-58.027h-130.389v58.027zM186.027 482.133h130.389v-58.027h-130.389v58.027zM363.52 656.896l-56.32 53.248-39.936-41.984 65.536-62.123c0 0 10.581 28.672 30.72 50.859zM360.107 251.051l-56.32-53.248-39.936 41.984 65.195 62.464c0 0 10.581-28.672 31.061-51.2zM685.739 656.896l56.32 53.248 39.936-41.984-65.536-62.123c0 0-10.581 28.672-30.72 50.859zM689.152 251.051l56.32-53.248 39.936 41.984-65.195 62.464c0 0-10.923-28.672-31.061-51.2zM519.168 930.304c-262.144 0-475.136-212.651-475.136-474.795s212.992-475.136 475.136-475.136 475.136 212.651 475.136 475.136-212.651 474.795-475.136 474.795zM519.168 60.928c-217.771 0-394.581 176.469-394.581 394.581s176.811 394.24 394.581 394.24 394.581-176.469 394.581-394.24-176.811-394.581-394.581-394.581z" />
<glyph unicode="&#xe90b;" glyph-name="book-reference" d="M307.2 755.2h-51.2c-28.262 0-51.2 22.938-51.2 51.2s22.938 51.2 51.2 51.2v0h563.2v51.2c0 28.262-22.938 51.2-51.2 51.2v0h-563.2c-56.576 0-102.4-45.824-102.4-102.4v0-819.2c0-56.32 46.080-102.4 102.4-102.4h614.4c56.576 0 102.4 45.824 102.4 102.4v0 665.6c0 28.262-22.938 51.2-51.2 51.2v0h-358.4v-409.6l-102.4 102.4-102.4-102.4v409.6z" />
<glyph unicode="&#xe90c;" glyph-name="calendar" d="M51.2 755.2c0 56.32 46.080 102.4 102.4 102.4h716.8c56.576 0 102.4-45.824 102.4-102.4v0-716.8c0-56.576-45.824-102.4-102.4-102.4v0h-716.8c-56.576 0-102.4 45.824-102.4 102.4v0 716.8zM153.6 652.8v-614.4h716.8v614.4h-716.8zM256 960h102.4v-102.4h-102.4v102.4zM665.6 960h102.4v-102.4h-102.4v102.4zM256 499.2h102.4v-102.4h-102.4v102.4zM256 294.4h102.4v-102.4h-102.4v102.4zM460.8 499.2h102.4v-102.4h-102.4v102.4zM460.8 294.4h102.4v-102.4h-102.4v102.4zM665.6 499.2h102.4v-102.4h-102.4v102.4zM665.6 294.4h102.4v-102.4h-102.4v102.4z" />
<glyph unicode="&#xe90d;" glyph-name="checkbox-checked" d="M896 960h-768c-70.4 0-128-57.6-128-128v-768c0-70.4 57.6-128 128-128h768c70.4 0 128 57.6 128 128v768c0 70.4-57.6 128-128 128zM448 165.504l-237.248 237.248 90.496 90.496 146.752-146.752 306.752 306.752 90.496-90.496-397.248-397.248z" />
<glyph unicode="&#xe90e;" glyph-name="checkmark" d="M864 832l-480-480-224 224-160-160 384-384 640 640z" />
<glyph unicode="&#xe90f;" glyph-name="checkmark2" d="M0 396.8l102.4 102.4 256-256 563.2 563.2 102.4-102.4-665.6-665.6z" />
<glyph unicode="&#xe910;" glyph-name="user" d="M256 704c0 141.363 114.637 256 256 256s256-114.637 256-256v0-102.4c0-141.363-114.637-256-256-256s-256 114.637-256 256v0 102.4zM0 105.984c146.432 86.272 322.611 137.216 510.669 137.216 0.461 0 0.922 0 1.382 0h-0.051c186.368 0 361.472-49.664 512-137.216v-169.984h-1024v169.984z" />
<glyph unicode="&#xe911;" glyph-name="checkmark21" d="M397.44 42.304l-397.856 391.616 197.376 194.272 200.48-197.344 429.632 422.848 197.376-194.272-627.008-617.12zM107.904 433.888l289.536-284.96 518.656 510.496-89.024 87.648-429.632-422.848-200.48 197.344-89.024-87.648z" />
<glyph unicode="&#xe912;" glyph-name="currency-dollar" d="M512-64c-282.778 0-512 229.222-512 512s229.222 512 512 512v0c282.778 0 512-229.222 512-512s-229.222-512-512-512v0zM563.2 192h51.2c84.838 0 153.6 68.762 153.6 153.6s-68.762 153.6-153.6 153.6v0h-205.312c-28.262 0-51.2 22.938-51.2 51.2s22.938 51.2 51.2 51.2v0h307.712v102.4h-153.6v102.4h-102.4v-102.4h-51.2c-84.838 0-153.6-68.762-153.6-153.6s68.762-153.6 153.6-153.6v0h204.8c28.262 0 51.2-22.938 51.2-51.2s-22.938-51.2-51.2-51.2v0h-307.2v-102.4h153.6v-102.4h102.4v102.4z" />
<glyph unicode="&#xe913;" glyph-name="facebook" d="M608 768h160v192h-160c-123.52 0-224-100.48-224-224v-96h-128v-192h128v-512h192v512h160l32 192h-192v96c0 17.344 14.656 32 32 32z" />
<glyph unicode="&#xe914;" glyph-name="facebook-p" d="M853.343 958.303h-682.657c-93.857 0-172.383-75.103-172.383-168.96v-682.657c0-93.857 78.497-172.383 172.383-172.383h343.040v389.12h-136.543v160.417h136.543v131.745c0 0-13.663 243.039 324.257 187.041v-141.312h-79.521c0 0-79.199 1.024-78.497-51.873 0.351-11.937 0.351-57.344 0.351-125.601h156.321l-20.831-160.417h-135.519c0-152.225-0.351-324.257-0.351-389.12h173.407c93.857 0 168.96 78.497 168.96 172.383v682.657c0 93.857-75.103 168.96-168.96 168.96z" />
<glyph unicode="&#xe915;" glyph-name="checkmark-outline" d="M150.016 86.016c-96.461 93.235-156.314 223.744-156.314 368.282 0 282.778 229.222 512 512 512 144.538 0 275.046-59.853 368.128-156.16l0.154-0.154c88.934-91.955 143.718-217.446 143.718-355.686 0-282.778-229.222-512-512-512-138.24 0-263.731 54.784-355.84 143.872l0.154-0.154zM801.792 158.208c74.189 74.189 120.013 176.64 120.013 289.792 0 226.355-183.501 409.805-409.805 409.805-113.152 0-215.603-45.875-289.792-120.013v0c-74.189-74.189-120.013-176.64-120.013-289.792 0-226.355 183.501-409.805 409.805-409.805 113.152 0 215.603 45.875 289.792 120.013v0zM343.040 484.352l117.76-118.272 220.16 220.16 71.68-72.704-291.84-290.816-189.44 189.44 71.68 72.704z" />
<glyph unicode="&#xe916;" glyph-name="chrome_reader_mode" d="M896 149.987v554.013h-384v-554.013h384zM896 789.987c45.992 0 85.987-39.995 85.987-85.987v-554.013c0-45.992-39.995-85.987-85.987-85.987h-768c-45.992 0-85.987 39.995-85.987 85.987v554.013c0 45.992 39.995 85.987 85.987 85.987h768zM554.013 342.001h300.003v-64.015h-300.003v64.015zM554.013 553.999h300.003v-64.015h-300.003v64.015zM554.013 448h300.003v-64.015h-300.003v64.015z" />
<glyph unicode="&#xe917;" glyph-name="class" d="M256 789.987v-341.987l105.999 64.015 107.988-64.015v341.987h-213.987zM768 874.013c45.992 0 85.987-38.005 85.987-83.997v-684.003c0-45.992-39.995-83.997-85.987-83.997h-512c-45.992 0-85.987 38.005-85.987 83.997v684.003c0 45.992 39.995 83.997 85.987 83.997h512z" />
<glyph unicode="&#xe918;" glyph-name="clipboard" d="M359.936 826.88c11.008 75.008 74.854 131.942 152.064 131.942s141.056-56.934 151.962-131.123l0.102-0.819 103.936-20.48v-51.2h51.2c56.576 0 102.4-45.824 102.4-102.4v0-614.4c0-56.576-45.824-102.4-102.4-102.4v0h-614.4c-56.576 0-102.4 45.824-102.4 102.4v0 614.4c0 56.32 46.080 102.4 102.4 102.4h51.2v51.2l103.936 20.48zM256 652.8h-51.2v-614.4h614.4v614.4h-51.2v-51.2h-512v51.2zM512 755.2c28.262 0 51.2 22.938 51.2 51.2s-22.938 51.2-51.2 51.2v0c-28.262 0-51.2-22.938-51.2-51.2s22.938-51.2 51.2-51.2v0z" />
<glyph unicode="&#xe919;" glyph-name="phone" d="M704 320c-64-64-64-128-128-128s-128 64-192 128-128 128-128 192 64 64 128 128-128 256-192 256-192-192-192-192c0-128 131.488-387.488 256-512s384-256 512-256c0 0 192 128 192 192s-192 256-256 192z" />
<glyph unicode="&#xe91a;" glyph-name="twittermio" d="M1026.721 762.719c-68.959-30.047-116.063-29.023-116.063-29.023 75.776 44.383 88.064 112.64 88.064 112.64-59.392-34.465-110.592-46.431-130.399-49.825-38.239 40.96-92.511 66.209-152.576 66.209-115.361 0-208.896-93.535-208.896-208.896 0-17.408 2.048-34.143 6.144-50.176v0c-284.321 16.735-434.527 221.535-434.527 221.535-87.040-175.777 64.863-279.201 64.863-279.201-47.777-6.144-93.857 23.903-93.857 23.903 9.567-175.777 167.263-206.497 167.263-206.497-45.407-15.36-93.184-4.447-93.184-4.447 51.2-146.783 193.887-144.384 193.887-144.384-128.351-112.991-303.104-89.761-303.104-89.761 92.511-58.719 202.401-93.184 320.161-93.184 327.329 0 592.545 265.216 592.545 592.545 0 10.913-0.351 21.504-1.024 32.417h-0.351c74.079 56.671 101.025 106.145 101.025 106.145z" />
<glyph unicode="&#xe91b;" glyph-name="vpn_key" d="M298.013 362.013c45.992 0 85.987 39.995 85.987 85.987s-39.995 85.987-85.987 85.987-83.997-39.995-83.997-85.987 38.005-85.987 83.997-85.987zM539.999 533.987h441.988v-172.003h-85.987v-170.013h-170.013v170.013h-185.988c-33.997-100.001-129.989-170.013-241.986-170.013-142.014 0-256 113.986-256 256s113.986 256 256 256c111.996 0 207.989-70.012 241.986-170.013z" />
<glyph unicode="&#xe91c;" glyph-name="clipboard1" d="M928 832h-288c0 70.688-57.312 128-128 128s-128-57.312-128-128h-288c-17.664 0-32-14.336-32-32v-832c0-17.664 14.336-32 32-32h832c17.664 0 32 14.336 32 32v832c0 17.664-14.336 32-32 32zM512 896c35.36 0 64-28.64 64-64s-28.64-64-64-64c-35.36 0-64 28.64-64 64s28.64 64 64 64zM896 0h-768v768h128v-96c0-17.664 14.336-32 32-32h448c17.664 0 32 14.336 32 32v96h128v-768zM448 101.504l-205.248 237.248 58.496 58.496 146.752-114.752 274.752 242.752 58.528-58.496z" />
<glyph unicode="&#xe91d;" glyph-name="clock" d="M658.752 210.752l-210.752 210.752v282.496h128v-229.504l173.248-173.248zM512 960c-282.784 0-512-229.216-512-512s229.216-512 512-512 512 229.216 512 512-229.216 512-512 512zM512 64c-212.064 0-384 171.936-384 384s171.936 384 384 384c212.064 0 384-171.936 384-384s-171.936-384-384-384z" />
<glyph unicode="&#xe91e;" glyph-name="compass2" d="M512 960c-282.784 0-512-229.216-512-512s229.216-512 512-512 512 229.216 512 512-229.216 512-512 512zM96 448c0 229.76 186.24 416 416 416 109.568 0 209.216-42.4 283.52-111.616l-411.52-176.384-176.384-411.52c-69.248 74.304-111.616 173.952-111.616 283.52zM585.152 374.848l-256.096-109.76 109.76 256.096 146.336-146.336zM512 32c-109.568 0-209.248 42.4-283.52 111.616l411.52 176.384 176.384 411.52c69.248-74.304 111.616-173.952 111.616-283.52 0-229.76-186.24-416-416-416z" />
<glyph unicode="&#xe91f;" glyph-name="date_range" d="M810.013 106.013v469.987h-595.997v-469.987h595.997zM810.013 789.987c45.992 0 85.987-39.995 85.987-85.987v-597.987c0-45.992-39.995-83.997-85.987-83.997h-595.997c-48.011 0-85.987 38.005-85.987 83.997v597.987c0 45.992 38.005 85.987 85.987 85.987h42.013v83.997h85.987v-83.997h339.997v83.997h85.987v-83.997h42.013zM725.987 490.013v-83.997h-85.987v83.997h85.987zM554.013 490.013v-83.997h-83.997v83.997h83.997zM384 490.013v-83.997h-85.987v83.997h85.987z" />
<glyph unicode="&#xe920;" glyph-name="details" d="M272.004 704l239.996-426.013 239.996 426.013h-479.993zM128 789.987h768l-384-684.003z" />
<glyph unicode="&#xe921;" glyph-name="education" d="M170.496 550.4l341.504-204.8 512 307.2-512 307.2-512-307.2h512v-102.4h-341.504zM0 550.4v-409.6l102.4 113.664v234.496l-102.4 61.44zM512-64l-358.4 215.040v307.2l358.4-215.040 358.4 215.040v-307.2l-358.4-215.040z" />
<glyph unicode="&#xe922;" glyph-name="event_available" d="M810.013 149.987v467.997h-595.997v-467.997h595.997zM810.013 832c45.992 0 85.987-39.995 85.987-85.987v-595.997c0-45.992-39.995-85.987-85.987-85.987h-595.997c-48.011 0-85.987 39.995-85.987 85.987v595.997c0 45.992 38.005 85.987 85.987 85.987h42.013v85.987h85.987v-85.987h339.997v85.987h85.987v-85.987h42.013zM706.004 487.995l-254.011-254.011-135.987 135.987 45.992 45.992 89.995-89.995 207.989 207.989z" />
<glyph unicode="&#xe923;" glyph-name="explore" d="M512-64c-282.778 0-512 229.222-512 512s229.222 512 512 512v0c282.778 0 512-229.222 512-512s-229.222-512-512-512v0zM403.456 556.544l-181.248-398.336 398.336 181.248 181.248 398.336-398.336-181.248zM512 396.8c-28.262 0-51.2 22.938-51.2 51.2s22.938 51.2 51.2 51.2v0c28.262 0 51.2-22.938 51.2-51.2s-22.938-51.2-51.2-51.2v0z" />
<glyph unicode="&#xe924;" glyph-name="file-text" d="M864 960h-768c-52.8 0-96-43.2-96-96v-832c0-52.8 43.2-96 96-96h768c52.8 0 96 43.2 96 96v832c0 52.8-43.2 96-96 96zM832 64h-704v768h704v-768zM256 512h448v-64h-448zM256 384h448v-64h-448zM256 256h448v-64h-448zM256 640h448v-64h-448z" />
<glyph unicode="&#xe925;" glyph-name="flag2" d="M392.55 345.6h-290.15v-409.6h-102.4v1024h614.4l17.050-102.4h392.55l-153.6-307.2 153.6-307.2h-614.4l-17.050 102.4z" />
<glyph unicode="&#xe926;" glyph-name="history" horiz-adv-x="1088" d="M640 896c247.424 0 448-200.576 448-448s-200.576-448-448-448v96c94.016 0 182.432 36.608 248.896 103.104s103.104 154.88 103.104 248.896c0 94.016-36.608 182.432-103.104 248.896s-154.88 103.104-248.896 103.104c-94.016 0-182.432-36.608-248.896-103.104-51.136-51.136-84.576-115.232-97.312-184.896h186.208l-224-256-224 256h164.576c31.072 217.088 217.728 384 443.424 384zM832 512v-128h-256v320h128v-192z" />
<glyph unicode="&#xe927;" glyph-name="hour-glass" d="M153.6 38.4c0 0.102 0 0.205 0 0.256 0 142.131 82.739 264.909 202.65 322.867l2.15 0.922v171.008c-122.061 58.88-204.8 181.709-204.8 323.84 0 0.102 0 0.205 0 0.307v0h-102.4v102.4h921.6v-102.4h-102.4c0-0.102 0-0.205 0-0.256 0-142.131-82.739-264.909-202.65-322.867l-2.15-0.922v-171.008c122.061-58.88 204.8-181.709 204.8-323.84 0-0.102 0-0.205 0-0.307v0h102.4v-102.4h-921.6v102.4h102.4zM256 857.6c0 0 0-0.051 0-0.051 0-123.238 87.091-226.15 203.11-250.522l1.69-0.307v-158.72h102.4v158.72c117.709 24.627 204.8 127.59 204.8 250.829 0 0 0 0.051 0 0.051v0h-512z" />
<glyph unicode="&#xe928;" glyph-name="hourglass_empty" d="M512 470.001l170.013 170.013v150.001h-339.997v-150.001zM682.013 255.985l-170.013 170.013-170.013-170.013v-150.001h339.997v150.001zM256 874.013h512v-256l-170.013-170.013 170.013-170.013v-256h-512v256l170.013 170.013-170.013 170.013v256z" />
<glyph unicode="&#xe929;" glyph-name="location_searching" d="M512 149.987c166.005 0 298.013 132.008 298.013 298.013s-132.008 298.013-298.013 298.013-298.013-132.008-298.013-298.013 132.008-298.013 298.013-298.013zM894.011 490.013h88.005v-83.997h-88.005c-20.012-178-161.997-320.015-339.997-339.997v-88.005h-83.997v88.005c-178 20.012-320.015 161.997-339.997 339.997h-88.005v83.997h88.005c20.012 178 161.997 320.015 339.997 339.997v88.005h83.997v-88.005c178-20.012 320.015-161.997 339.997-339.997z" />
<glyph unicode="&#xe92a;" glyph-name="my_location" d="M512 149.987c166.005 0 298.013 132.008 298.013 298.013s-132.008 298.013-298.013 298.013-298.013-132.008-298.013-298.013 132.008-298.013 298.013-298.013zM894.011 490.013h88.005v-83.997h-88.005c-20.012-178-161.997-320.015-339.997-339.997v-88.005h-83.997v88.005c-178 20.012-320.015 161.997-339.997 339.997h-88.005v83.997h88.005c20.012 178 161.997 320.015 339.997 339.997v88.005h83.997v-88.005c178-20.012 320.015-161.997 339.997-339.997zM512 618.013c94.003 0 170.013-76.010 170.013-170.013s-76.010-170.013-170.013-170.013-170.013 76.010-170.013 170.013 76.010 170.013 170.013 170.013z" />
<glyph unicode="&#xe92b;" glyph-name="person_pin" d="M768 277.987v38.005c0 85.987-170.013 132.008-256 132.008s-256-45.992-256-132.008v-38.005h512zM512 733.989c-64.015 0-116.005-51.99-116.005-116.005s51.99-113.986 116.005-113.986 116.005 50 116.005 113.986-51.99 116.005-116.005 116.005zM810.013 874.013c45.992 0 85.987-38.005 85.987-83.997v-597.987c0-45.992-39.995-85.987-85.987-85.987h-170.013l-128-128-128 128h-170.013c-48.011 0-85.987 39.995-85.987 85.987v597.987c0 45.992 38.005 83.997 85.987 83.997h595.997z" />
<glyph unicode="&#xe92c;" glyph-name="pin" d="M563.2 345.6h307.2v51.2l-153.6 51.2v409.6l153.6 51.2v51.2h-716.8v-51.2l153.6-51.2v-409.6l-153.6-51.2v-51.2h307.2v-358.4l51.2-51.2 51.2 51.2v358.4z" />
<glyph unicode="&#xe92d;" glyph-name="pin_drop" d="M213.987 106.013h595.997v-83.997h-595.997v83.997zM426.013 618.013c0-45.992 39.995-83.997 85.987-83.997 48.011 0 85.987 38.005 85.987 83.997s-39.995 85.987-85.987 85.987-85.987-39.995-85.987-85.987zM768 618.013c0-192.015-256-467.997-256-467.997s-256 276.012-256 467.997c0 142.014 113.986 256 256 256s256-113.986 256-256z" />
<glyph unicode="&#xe92e;" glyph-name="plugin" d="M1024 243.2v-204.8c0-56.576-45.824-102.4-102.4-102.4v0h-204.8v102.4c0 56.576-45.824 102.4-102.4 102.4v0c-56.576 0-102.4-45.824-102.4-102.4v0-102.4h-204.8c-56.576 0-102.4 45.824-102.4 102.4v0 204.8h-102.4c-56.576 0-102.4 45.824-102.4 102.4v0c0 56.576 45.824 102.4 102.4 102.4v0h102.4v204.8c0 56.32 46.080 102.4 102.4 102.4h204.8v102.4c0 56.576 45.824 102.4 102.4 102.4v0c56.576 0 102.4-45.824 102.4-102.4v0-102.4h204.8c56.576 0 102.4-45.824 102.4-102.4v0-204.8h-102.4c-56.576 0-102.4-45.824-102.4-102.4v0c0-56.576 45.824-102.4 102.4-102.4v0h102.4z" />
<glyph unicode="&#xe92f;" glyph-name="portfolio" d="M460.8 345.6h-409.6v-307.2c0-56.576 45.824-102.4 102.4-102.4v0h716.8c56.576 0 102.4 45.824 102.4 102.4v0 307.2h-409.6v-102.4h-102.4v102.4zM460.8 396.8h-460.8v307.2c0 56.32 46.080 102.4 102.4 102.4h204.8v51.2c0 56.576 45.824 102.4 102.4 102.4v0h204.8c56.576 0 102.4-45.824 102.4-102.4v0-51.2h204.8c56.576 0 102.4-45.824 102.4-102.4v0-307.2h-460.8v102.4h-102.4v-102.4zM614.4 806.4v51.2h-204.8v-51.2h204.8z" />
<glyph unicode="&#xe930;" glyph-name="price-tag" d="M976 960h-384c-26.4 0-63.264-15.264-81.952-33.952l-476.128-476.128c-18.656-18.656-18.656-49.216 0-67.872l412.128-412.128c18.656-18.656 49.216-18.656 67.872 0l476.128 476.128c18.656 18.656 33.952 55.552 33.952 81.952v384c0 26.4-21.6 48-48 48zM736 576c-53.024 0-96 42.976-96 96s42.976 96 96 96 96-42.976 96-96-42.976-96-96-96z" />
<glyph unicode="&#xe931;" glyph-name="pushpin" d="M544 960l-96-96 96-96-224-256h-224l176-176-272-360.608v-39.392h39.392l360.608 272 176-176v224l256 224 96-96 96 96-480 480zM448 416l-64 64 224 224 64-64-224-224z" />
<glyph unicode="&#xe932;" glyph-name="pylon" d="M890.88 38.4h133.12v-102.4h-1024v102.4h133.12l276.48 921.6h204.8l276.48-921.6zM727.040 243.2h-430.080l-61.44-204.8h552.96l-61.44 204.8zM604.16 652.8h-184.32l-61.44-204.8h307.2l-61.44 204.8z" />
<glyph unicode="&#xe933;" glyph-name="rss" d="M136.288 209.056c-75.2 0-136.288-61.344-136.288-136.064 0-75.168 61.088-135.808 136.288-135.808 75.456 0 136.48 60.64 136.48 135.808 0 74.752-61.024 136.064-136.48 136.064zM0.16 612.064v-196.256c127.776 0 247.968-49.984 338.464-140.512 90.4-90.304 140.288-211.040 140.288-339.296h197.12c0 372.832-303.296 676.064-675.872 676.064zM0.384 960v-196.352c455.776 0 826.752-371.328 826.752-827.648h196.864c0 564.48-459.264 1024-1023.616 1024z" />
<glyph unicode="&#xe934;" glyph-name="school" d="M512 832l469.987-256v-341.987h-85.987v295.995l-384-210.008-469.987 256zM213.987 398l298.013-163.986 298.013 163.986v-172.003l-298.013-161.997-298.013 161.997v172.003z" />
<glyph unicode="&#xe935;" glyph-name="shield2" d="M972.8 396.8c-7.27-128.154-76.339-238.797-177.664-303.206l-1.536-0.922-281.6-156.672-281.6 156.672c-102.861 65.331-171.93 175.974-179.149 303.104l-0.051 1.024v409.6c173.056 0 332.8 57.344 460.8 153.6 128-96.768 287.744-153.6 460.8-153.6v-409.6zM512 341.504l149.504-104.448-52.736 174.592 145.408 110.080-182.272 4.096-59.904 172.032-59.904-172.032-182.272-4.096 144.896-109.568-52.736-174.080 150.016 102.912z" />
<glyph unicode="&#xe936;" glyph-name="star-empty" d="M1024 562.944l-353.792 51.424-158.208 320.576-158.208-320.576-353.792-51.424 256-249.536-60.448-352.352 316.448 166.368 316.448-166.368-60.448 352.352 256 249.536zM512 206.496l-223.456-117.472 42.688 248.832-180.8 176.224 249.856 36.288 111.744 226.4 111.744-226.4 249.824-36.288-180.8-176.224 42.688-248.832-223.456 117.472z" />
<glyph unicode="&#xe937;" glyph-name="star-full1" d="M1024 562.944l-353.792 51.424-158.208 320.576-158.208-320.576-353.792-51.424 256-249.536-60.448-352.352 316.448 166.368 316.448-166.368-60.448 352.352 256 249.536z" />
<glyph unicode="&#xe938;" glyph-name="stopwatch" d="M512 766.784v65.216h128v64c0 35.36-28.64 64-64 64h-192c-35.36 0-64-28.64-64-64v-64h128v-65.216c-214.784-16.352-384-195.808-384-414.784 0-229.76 186.24-416 416-416s416 186.24 416 416c0 218.976-169.216 398.432-384 414.784zM706.272 125.728c-60.448-60.448-140.8-93.728-226.272-93.728s-165.824 33.28-226.272 93.728c-60.448 60.448-93.728 140.8-93.728 226.272s33.28 165.824 93.728 226.272c58.048 58.048 134.432 91.008 216.128 93.536l-21.664-314.016c-1.856-26.304 12.448-37.792 31.84-37.792s33.696 11.52 31.84 37.792l-21.664 314.016c81.664-2.528 158.080-35.52 216.128-93.536 60.448-60.448 93.728-140.8 93.728-226.272s-33.28-165.824-93.728-226.272z" />
<glyph unicode="&#xe939;" glyph-name="target" d="M918.528 396.8h-252.928v102.4h252.928c-24.013 185.754-169.523 331.315-353.28 355.123l-2.048 0.205v-252.928h-102.4v252.928c-185.754-24.013-331.315-169.523-355.123-353.28l-0.205-2.048h252.928v-102.4h-252.928c24.013-185.754 169.523-331.315 353.28-355.123l2.048-0.205v252.928h102.4v-252.928c185.754 24.013 331.315 169.523 355.123 353.28l0.205 2.048zM512-64c-282.778 0-512 229.222-512 512s229.222 512 512 512v0c282.778 0 512-229.222 512-512s-229.222-512-512-512v0z" />
<glyph unicode="&#xe93a;" glyph-name="target1" d="M1024 512h-100.928c-27.648 178.24-168.832 319.424-347.072 347.072v100.928h-128v-100.928c-178.24-27.648-319.424-168.832-347.072-347.072h-100.928v-128h100.928c27.648-178.24 168.832-319.424 347.072-347.072v-100.928h128v100.928c178.24 27.648 319.424 168.832 347.072 347.072h100.928v128zM792.832 512h-99.776c-19.296 54.56-62.496 97.792-117.056 117.056v99.776c107.52-24.48 192.32-109.312 216.832-216.832zM512 384c-35.36 0-64 28.64-64 64s28.64 64 64 64c35.36 0 64-28.64 64-64s-28.64-64-64-64zM448 728.832v-99.776c-54.56-19.296-97.792-62.496-117.056-117.056h-99.776c24.48 107.52 109.312 192.32 216.832 216.832zM231.168 384h99.776c19.296-54.56 62.496-97.792 117.056-117.056v-99.776c-107.52 24.48-192.32 109.312-216.832 216.832zM576 167.168v99.776c54.56 19.296 97.792 62.496 117.056 117.056h99.776c-24.48-107.52-109.312-192.32-216.832-216.832z" />
<glyph unicode="&#xe93b;" glyph-name="timelapse" d="M512 106.013c188.006 0 341.987 154.010 341.987 341.987s-154.010 341.987-341.987 341.987-341.987-154.010-341.987-341.987 154.010-341.987 341.987-341.987zM512 874.013c235.988 0 426.013-189.996 426.013-426.013s-189.996-426.013-426.013-426.013-426.013 189.996-426.013 426.013 189.996 426.013 426.013 426.013zM691.99 627.99c100.001-100.001 101.99-260.008 1.989-360.009s-261.998-100.001-361.999 0l179.99 179.99v256c66.004 0 129.989-26.010 179.99-76.010z" />
<glyph unicode="&#xe93c;" glyph-name="timer" d="M835.584 596.48c53.453-68.557 85.76-155.904 85.76-250.778 0-226.202-183.398-409.6-409.6-409.6s-409.6 183.398-409.6 409.6c0 208.282 155.443 380.211 356.608 406.221l2.048 0.205v105.472h102.4v-105.472c74.752-9.216 143.36-38.912 199.68-82.944l74.752 74.752 72.704-72.704-74.752-74.24zM512 38.4c169.677 0 307.2 137.523 307.2 307.2s-137.523 307.2-307.2 307.2v0c-169.677 0-307.2-137.523-307.2-307.2s137.523-307.2 307.2-307.2v0zM358.4 960h307.2v-102.4h-307.2v102.4zM620.544 526.848l72.704-72.704-181.248-180.224-72.192 71.68 180.736 181.248z" />
<glyph unicode="&#xe93d;" glyph-name="timer1" d="M512 106.013c166.005 0 298.013 133.998 298.013 300.003s-132.008 298.013-298.013 298.013-298.013-132.008-298.013-298.013 132.008-300.003 298.013-300.003zM812.003 643.994c51.99-66.004 83.997-148.012 83.997-238.007 0-211.997-172.003-384-384-384s-384 172.003-384 384 172.003 384 384 384c89.995 0 173.992-33.997 239.996-85.987l60.006 61.996c22.001-17.993 42.013-38.005 60.006-60.006zM469.987 362.013v256h83.997v-256h-83.997zM640 917.987v-85.987h-256v85.987h256z" />
<glyph unicode="&#xe93e;" glyph-name="touch_app" d="M803.986 281.995c22.001-10.006 38.005-32.007 38.005-57.988v-7.987l-32.007-226.011c-4.008-32.007-29.989-54.009-61.996-54.009h-289.997c-17.993 0-32.007 5.998-44.003 17.993l-211.997 211.997 33.997 33.997c7.987 7.987 20.012 14.014 33.997 14.014 4.008 0 5.998-1.989 10.006-1.989l145.993-29.989v457.991c0 35.986 27.999 64.015 64.015 64.015s64.015-27.999 64.015-64.015v-256h33.997c7.987 0 14.014-1.989 22.001-4.008zM384 480.007c-51.99 33.997-85.987 94.003-85.987 160.007 0 105.999 85.987 192.015 192.015 192.015s192.015-85.987 192.015-192.015c0-66.004-32.007-126.011-83.997-160.007v160.007c0 57.988-50 105.999-107.988 105.999s-105.999-48.011-105.999-105.999v-160.007z" />
<glyph unicode="&#xe93f;" glyph-name="travel-case" d="M716.8 704h102.4v-716.8h-614.4v716.8h102.4v51.2c0 56.576 45.824 102.4 102.4 102.4v0h204.8c56.576 0 102.4-45.824 102.4-102.4v0-51.2zM870.4 704h51.2c56.576 0 102.4-45.824 102.4-102.4v0-512c0-56.576-45.824-102.4-102.4-102.4v0h-51.2v716.8zM153.6 704v-716.8h-51.2c-56.576 0-102.4 45.824-102.4 102.4v0 512c0 56.32 46.080 102.4 102.4 102.4h51.2zM409.6 755.2v-51.2h204.8v51.2h-204.8z" />
<glyph unicode="&#xe940;" glyph-name="trophy1" d="M832 768v128h-640v-128h-192v-128c0-106.048 85.952-192 192-192 20.064 0 39.424 3.072 57.632 8.8 46.176-66.016 116.608-113.792 198.368-130.4v-198.4h-64c-70.688 0-128-57.312-128-128h512c0 70.688-57.312 128-128 128h-64v198.4c81.76 16.608 152.192 64.384 198.368 130.4 18.176-5.728 37.536-8.8 57.632-8.8 106.048 0 192 85.952 192 192v128h-192zM192 524c-63.968 0-116 52.032-116 116v64h116v-64c0-40.192 7.424-78.624 20.96-114.080-6.816-1.248-13.792-1.92-20.96-1.92zM948 640c0-63.968-52.032-116-116-116-7.168 0-14.144 0.672-20.96 1.92 13.536 35.424 20.96 73.888 20.96 114.080v64h116v-64z" />
<glyph unicode="&#xe941;" glyph-name="turned_in" d="M725.987 832c45.992 0 83.997-39.995 83.997-85.987v-682.013l-298.013 128-298.013-128v682.013c0 45.992 38.005 85.987 83.997 85.987h428.003z" />
<glyph unicode="&#xe942;" glyph-name="verified_user" d="M426.013 234.013l341.987 341.987-60.006 60.006-282.010-279.991-110.007 110.007-60.006-60.006zM512 917.987l384-172.003v-256c0-235.988-163.986-457.991-384-512-220.014 54.009-384 276.012-384 512v256z" />
<glyph unicode="&#xe943;" glyph-name="widgets" d="M710.012 887.998l241.986-241.986-241.986-239.996h185.988v-341.987h-341.987v341.987h155.999l-239.996 239.996v-155.999h-341.987v341.987h341.987v-185.988zM128 64v341.987h341.987v-341.987h-341.987z" />
<glyph unicode="&#xe944;" glyph-name="work" d="M597.987 704v85.987h-172.003v-85.987h172.003zM853.987 704c48.011 0 83.997-38.005 83.997-85.987v-467.997c0-48.011-35.986-85.987-83.997-85.987h-684.003c-48.011 0-83.997 38.005-83.997 85.987v467.997c0 48.011 35.986 85.987 83.997 85.987h172.003v85.987c0 48.011 35.986 83.997 83.997 83.997h172.003c48.011 0 83.997-35.986 83.997-83.997v-85.987h172.003z" />
<glyph unicode="&#xe945;" glyph-name="folder_special" d="M766.011 234.013l-33.997 142.014 110.007 95.993-144.004 11.995-57.988 133.998-57.988-133.998-144.004-11.995 110.007-95.993-33.997-142.014 126.011 73.991zM853.987 704c45.992 0 83.997-39.995 83.997-85.987v-426.013c0-45.992-38.005-85.987-83.997-85.987h-684.003c-45.992 0-83.997 39.995-83.997 85.987v512c0 45.992 38.005 85.987 83.997 85.987h256l85.987-85.987h341.987z" />
<glyph unicode="&#xe946;" glyph-name="library_books" d="M810.013 661.987v83.997h-426.013v-83.997h426.013zM640 320v85.987h-256v-85.987h256zM810.013 490.013v85.987h-426.013v-85.987h426.013zM853.987 874.013c45.992 0 83.997-38.005 83.997-83.997v-512c0-45.992-38.005-85.987-83.997-85.987h-512c-45.992 0-85.987 39.995-85.987 85.987v512c0 45.992 39.995 83.997 85.987 83.997h512zM170.013 704v-597.987h597.987v-83.997h-597.987c-45.992 0-83.997 38.005-83.997 83.997v597.987h83.997z" />
<glyph unicode="&#xe947;" glyph-name="announcement" d="M153.6 652.8c0 56.32 46.080 102.4 102.4 102.4h409.6l204.8 204.8h102.4v-819.2h-102.4l-204.8 204.8h-409.6c-56.576 0-102.4 45.824-102.4 102.4v0h-102.4v204.8h102.4zM563.2 192v-256h-153.6l-85.504 256h-68.096v102.4h409.6v-102.4h-102.4z" />
<glyph unicode="&#xe948;" glyph-name="assignment" d="M725.987 576v85.987h-428.003v-85.987h428.003zM725.987 405.987v83.997h-428.003v-83.997h428.003zM597.987 234.013v85.987h-300.003v-85.987h300.003zM512 832c-23.991 0-42.013-17.993-42.013-42.013s17.993-44.003 42.013-44.003 42.013 20.012 42.013 44.003-17.993 42.013-42.013 42.013zM810.013 832c45.992 0 85.987-39.995 85.987-85.987v-595.997c0-45.992-39.995-85.987-85.987-85.987h-595.997c-45.992 0-85.987 39.995-85.987 85.987v595.997c0 45.992 39.995 85.987 85.987 85.987h178c17.993 50 64.015 85.987 120.013 85.987s101.99-35.986 120.013-85.987h178z" />
<glyph unicode="&#xe949;" glyph-name="attach_money" d="M504.013 493.992c95.993-26.010 200.002-64.015 200.002-185.988 0-88.005-66.004-135.987-150.001-151.991v-92.014h-128v92.014c-82.008 17.993-150.001 70.012-155.999 163.986h94.003c4.008-50 38.005-89.995 126.011-89.995 94.003 0 116.005 45.992 116.005 76.010 0 39.995-22.001 78-128 104.009-120.013 27.999-200.002 78-200.002 176.011 0 82.008 66.004 135.987 148.012 154.010v92.014h128v-94.003c89.995-22.001 135.987-88.005 138.006-161.997h-94.003c-1.989 54.009-32.007 89.995-107.988 89.995-72.002 0-113.986-33.997-113.986-79.989 0-39.995 32.007-66.004 128-92.014z" />
<glyph unicode="&#xe94a;" glyph-name="extension" d="M873.999 490.013c57.988 0 107.988-48.011 107.988-105.999s-50-105.999-107.988-105.999h-64.015v-172.003c0-45.992-38.005-83.997-83.997-83.997h-161.997v64.015c0 64.015-51.99 113.986-116.005 113.986s-116.005-50-116.005-113.986v-64.015h-161.997c-45.992 0-83.997 38.005-83.997 83.997v161.997h64.015c64.015 0 113.986 51.99 113.986 116.005s-50 116.005-113.986 116.005h-64.015v161.997c0 45.992 38.005 83.997 83.997 83.997h172.003v64.015c0 57.988 48.011 107.988 105.999 107.988s105.999-50 105.999-107.988v-64.015h172.003c45.992 0 83.997-38.005 83.997-83.997v-172.003h64.015z" />
<glyph unicode="&#xe94b;" glyph-name="file-text2" d="M917.792 730.912c-22.208 30.304-53.184 65.696-87.168 99.712s-69.408 64.96-99.712 87.168c-51.584 37.824-76.576 42.208-90.912 42.208h-496c-44.096 0-80-35.872-80-80v-864c0-44.096 35.904-80 80-80h736c44.096 0 80 35.904 80 80v624c0 14.336-4.384 39.36-42.208 90.912zM785.376 785.376c30.688-30.688 54.784-58.4 72.576-81.376h-153.952v153.952c22.976-17.792 50.688-41.888 81.376-72.576zM896 16c0-8.672-7.328-16-16-16h-736c-8.672 0-16 7.328-16 16v864c0 8.672 7.328 16 16 16 0 0 495.968 0 496 0v-224c0-17.664 14.336-32 32-32h224v-624zM736 128h-448c-17.664 0-32 14.336-32 32s14.336 32 32 32h448c17.664 0 32-14.336 32-32s-14.336-32-32-32zM736 256h-448c-17.664 0-32 14.336-32 32s14.336 32 32 32h448c17.664 0 32-14.336 32-32s-14.336-32-32-32zM736 384h-448c-17.664 0-32 14.336-32 32s14.336 32 32 32h448c17.664 0 32-14.336 32-32s-14.336-32-32-32z" />
<glyph unicode="&#xe94c;" glyph-name="folder_shared" d="M810.013 234.013v44.003c0 55.998-113.986 83.997-170.013 83.997s-170.013-27.999-170.013-83.997v-44.003h339.997zM640 576c-45.992 0-85.987-39.995-85.987-85.987s39.995-83.997 85.987-83.997 85.987 38.005 85.987 83.997-39.995 85.987-85.987 85.987zM853.987 704c45.992 0 83.997-39.995 83.997-85.987v-426.013c0-45.992-38.005-85.987-83.997-85.987h-684.003c-45.992 0-83.997 39.995-83.997 85.987v512c0 45.992 38.005 85.987 83.997 85.987h256l85.987-85.987h341.987z" />
<glyph unicode="&#xe94d;" glyph-name="time" d="M512-64c-282.778 0-512 229.222-512 512s229.222 512 512 512v0c282.778 0 512-229.222 512-512s-229.222-512-512-512v0zM512 38.4c226.202 0 409.6 183.398 409.6 409.6s-183.398 409.6-409.6 409.6v0c-226.202 0-409.6-183.398-409.6-409.6s183.398-409.6 409.6-409.6v0zM460.8 427.008v328.192h102.4v-286.208l202.24-202.24-72.192-72.192-232.448 232.448z" />
<glyph unicode="&#xe94e;" glyph-name="view-tile" d="M0 960h460.8v-460.8h-460.8v460.8zM102.4 857.6v-256h256v256h-256zM0 396.8h460.8v-460.8h-460.8v460.8zM102.4 294.4v-256h256v256h-256zM563.2 960h460.8v-460.8h-460.8v460.8zM665.6 857.6v-256h256v256h-256zM563.2 396.8h460.8v-460.8h-460.8v460.8zM665.6 294.4v-256h256v256h-256z" />
<glyph unicode="&#xe94f;" glyph-name="lista" d="M994.645 338.603l-154.965 236.203 105.643 290.304c9.557 25.429-3.755 53.589-29.184 63.147s-53.589-3.755-63.147-29.184l-80.555-221.696-161.963 246.955c-19.968 30.208-60.757 38.912-90.965 18.944l-90.965-59.733c-1.024 0.341-2.219 0.683-3.413 0.853-9.216 2.048-18.603 0-26.453-5.12l-30.208-19.627-32.597 49.835c-5.12 7.851-13.312 13.312-22.357 15.189-9.216 2.048-18.603 0-26.453-5.12l-100.181-65.536c-7.851-5.12-13.312-13.312-15.189-22.357s0-18.603 5.12-26.453l32.597-49.835-22.357-14.677c-7.851-5.12-13.312-13.312-15.189-22.357-0.341-1.195-0.512-2.389-0.512-3.584l-110.763-72.533c-14.507-9.557-24.405-24.235-28.16-41.472-3.413-16.896 0-34.475 9.557-49.152l384.341-586.069c9.557-14.507 24.235-24.405 41.472-28.16 4.779-1.024 9.216-1.365 13.653-1.365 12.459 0 24.747 3.755 35.328 10.923l458.923 300.715c30.549 19.968 38.571 60.757 18.944 90.965zM481.451 4.267l-382.123 582.997 102.4 67.072 15.019-22.869c5.12-7.851 13.312-13.312 22.357-15.189 2.389-0.341 4.779-0.683 7.168-0.683 6.827 0 13.653 2.048 19.285 5.803l211.797 138.411c7.851 5.12 13.312 13.312 15.189 22.357 1.365 9.045-0.171 18.432-5.291 26.283l-15.019 23.040 82.773 54.272 188.587-287.744-23.552-65.024c-0.512 1.877-1.365 3.755-2.56 5.461l-38.741 59.051c-3.072 4.779-7.509 7.851-12.971 8.875-5.291 1.024-10.752 0-15.189-3.072l-62.123-40.789c-4.779-3.072-7.851-7.509-8.875-12.971-1.365-5.291-0.341-10.752 2.731-15.189l38.741-59.051c3.072-4.779 7.509-7.851 12.971-8.875 1.365-0.341 2.731-0.341 4.096-0.341 3.925 0 7.68 1.024 11.435 3.413l62.123 40.789c0.171 0 0.171 0.171 0.171 0.171l-7.68-21.333c-2.048-5.461-2.048-11.435 0-16.896l-42.325-27.819c-9.216-6.144-11.947-18.603-5.803-28.16l38.741-59.051c3.925-6.144 10.411-9.216 16.896-9.216 3.755 0 7.509 1.024 11.264 3.413l62.123 40.789c9.216 6.485 11.947 18.944 5.803 28.16l-12.288 18.603 4.267 1.877c6.144 2.731 11.264 8.192 13.653 14.677l14.507 39.765 125.781-192.341-455.339-298.667zM770.56 409.771l-58.368-38.4-36.352 55.296 38.059 24.917 16.213-33.451 27.307 11.776 13.141-20.139zM697.003 527.872l-58.368-38.4-36.352 55.296 58.368 38.4 36.352-55.296zM543.915 593.067c3.925-6.144 10.411-9.216 16.896-9.216 3.755 0 7.509 1.024 10.923 3.413l62.123 40.789c9.216 6.485 11.947 18.944 5.803 28.16l-38.741 59.051c-6.144 9.216-18.603 11.947-28.16 5.803l-62.123-40.789c-9.216-6.485-11.947-18.944-5.803-28.16l39.083-59.051zM583.509 700.928l36.352-55.296-58.368-38.4-36.352 55.296 58.368 38.4zM507.904 587.264c1.707 7.509 0.341 14.848-3.755 21.333s-10.24 10.923-17.579 12.629c-7.509 1.707-14.848 0.341-21.333-3.755l-221.184-139.093c-6.485-4.096-10.923-10.24-12.629-17.579-1.707-7.509-0.341-14.848 3.755-20.992 4.096-6.485 10.24-10.923 17.579-12.629 2.048-0.341 4.096-0.683 6.485-0.683 5.12 0 10.581 1.365 14.848 4.437l221.184 139.093c6.485 3.584 10.923 9.728 12.629 17.237zM582.827 465.749c1.707 7.509 0.341 14.848-3.755 21.333s-10.24 10.923-17.579 12.629c-7.509 1.707-14.848 0.341-21.333-3.755l-221.184-139.093c-6.485-4.096-10.923-10.24-12.629-17.579-1.707-7.509-0.341-14.848 3.755-21.333s10.24-10.923 17.579-12.629c2.048-0.341 4.096-0.683 6.485-0.683 5.12 0 10.581 1.365 14.848 4.437l221.355 138.923c6.485 4.096 10.752 10.24 12.459 17.749zM608.597 392.875l-221.184-139.264c-13.312-8.192-16.896-25.771-8.875-38.741 4.096-6.485 10.24-10.923 17.579-12.629 2.048-0.341 4.096-0.683 6.485-0.683 5.12 0 10.581 1.365 14.848 4.437l221.184 139.093c13.141 8.363 16.896 25.6 8.704 38.912s-25.771 16.896-38.741 8.875z" />
<glyph unicode="&#xe950;" glyph-name="mail_outline" d="M512 490.013l341.987 213.987h-684.003zM853.987 192v426.013l-341.987-211.997-341.987 211.997v-426.013h684.003zM853.987 789.987c45.992 0 83.997-39.995 83.997-85.987v-512c0-45.992-38.005-85.987-83.997-85.987h-684.003c-45.992 0-83.997 39.995-83.997 85.987v512c0 45.992 38.005 85.987 83.997 85.987h684.003z" />
<glyph unicode="&#xe951;" glyph-name="compose" d="M102.4 755.2v-716.8h716.8v307.2l102.4 102.4v-512h-921.6v921.6h512l-102.4-102.4h-307.2zM629.76 770.56l204.8-204.8-424.96-424.96h-204.8v204.8l424.96 424.96zM701.44 842.24l117.76 117.76 204.8-204.8-117.76-117.76-204.8 204.8z" />
<glyph unicode="&#xe952;" glyph-name="images" horiz-adv-x="1152" d="M1088 832h-64v64c0 35.2-28.8 64-64 64h-896c-35.2 0-64-28.8-64-64v-768c0-35.2 28.8-64 64-64h64v-64c0-35.2 28.8-64 64-64h896c35.2 0 64 28.8 64 64v768c0 35.2-28.8 64-64 64zM128 768v-640h-63.872c-0.032 0.032-0.096 0.064-0.128 0.128v767.776c0.032 0.032 0.064 0.096 0.128 0.128h895.776c0.032-0.032 0.096-0.064 0.128-0.128v-63.872h-768c-35.2 0-64-28.8-64-64v0zM1088 0.128c-0.032-0.032-0.064-0.096-0.128-0.128h-895.776c-0.032 0.032-0.096 0.064-0.128 0.128v767.776c0.032 0.032 0.064 0.096 0.128 0.128h895.776c0.032-0.032 0.096-0.064 0.128-0.128v-767.776zM960 608c0-53.024-42.976-96-96-96s-96 42.976-96 96 42.976 96 96 96 96-42.976 96-96zM1024 64h-768v128l224 384 256-320h64l224 192z" />
<glyph unicode="&#xe953;" glyph-name="account_balance" d="M489.999 917.987l406.001-213.987v-85.987h-810.013v85.987zM682.013 533.987h128v-300.003h-128v300.003zM85.987 21.987v128h810.013v-128h-810.013zM426.013 533.987h128v-300.003h-128v300.003zM170.013 533.987h128v-300.003h-128v300.003z" />
<glyph unicode="&#xe954;" glyph-name="attach_file" d="M704.015 704h64.015v-489.999c0-129.989-104.009-235.988-233.999-235.988s-235.988 105.999-235.988 235.988v532.012c0 94.003 78 172.003 172.003 172.003s170.013-78 170.013-172.003v-448.015c0-57.988-48.011-105.999-105.999-105.999s-107.988 48.011-107.988 105.999v406.001h64.015v-406.001c0-23.991 20.012-42.013 44.003-42.013s42.013 17.993 42.013 42.013v448.015c0 57.988-48.011 107.988-105.999 107.988s-107.988-50-107.988-107.988v-532.012c0-94.003 78-172.003 172.003-172.003s170.013 78 170.013 172.003v489.999z" />
<glyph unicode="&#xe955;" glyph-name="attachment" d="M665.824 632.96l-64.96 64.928-324.8-324.736c-53.824-53.792-53.824-141.056 0-194.848s141.056-53.792 194.88 0l389.76 389.696c89.728 89.664 89.728 235.072 0 324.736-89.664 89.696-235.104 89.696-324.768 0l-409.216-409.184c-0.288-0.288-0.608-0.576-0.864-0.832-125.088-125.088-125.088-327.84 0-452.896 125.056-125.056 327.872-125.056 452.992 0 0.288 0.288 0.512 0.576 0.832 0.864l0.032-0.032 279.328 279.296-64.992 64.928-279.328-279.264c-0.288-0.256-0.576-0.576-0.832-0.832-89.088-89.056-233.984-89.056-323.072 0-89.056 89.056-89.056 233.92 0 322.976 0.32 0.288 0.608 0.576 0.896 0.832l-0.032 0.064 409.28 409.152c53.696 53.728 141.152 53.728 194.88 0s53.696-141.152 0-194.848l-389.76-389.696c-17.92-17.92-47.040-17.92-64.96 0-17.888 17.888-17.888 47.040 0 64.928l324.8 324.768z" />
<glyph unicode="&#xe956;" glyph-name="bin" d="M128 640v-640c0-35.2 28.8-64 64-64h576c35.2 0 64 28.8 64 64v640h-704zM320 64h-64v448h64v-448zM448 64h-64v448h64v-448zM576 64h-64v448h64v-448zM704 64h-64v448h64v-448zM848 832h-208v80c0 26.4-21.6 48-48 48h-224c-26.4 0-48-21.6-48-48v-80h-208c-26.4 0-48-21.6-48-48v-80h832v80c0 26.4-21.6 48-48 48zM576 832h-192v63.2h192v-63.2z" />
<glyph unicode="&#xe957;" glyph-name="bookmark2" d="M102.4 857.6c0 56.32 46.080 102.4 102.4 102.4h614.4c56.576 0 102.4-45.824 102.4-102.4v0-921.6l-409.6 204.8-409.6-204.8v921.6z" />
<glyph unicode="&#xe958;" glyph-name="bookmark-outline" d="M102.4 857.6c0 56.32 46.080 102.4 102.4 102.4h614.4c56.576 0 102.4-45.824 102.4-102.4v0-921.6l-409.6 204.8-409.6-204.8v921.6zM204.8 857.6v-768l307.2 153.6 307.2-153.6v768h-614.4z" />
<glyph unicode="&#xe959;" glyph-name="phone2" d="M1024 20.48v-33.28c0-28.262-22.938-51.2-51.2-51.2v0h-102.4c-480.717 0-870.4 389.683-870.4 870.4v0 102.4c0 28.262 22.938 51.2 51.2 51.2v0h204.8c28.262 0 51.2-22.938 51.2-51.2v0-204.8c0-28.672-15.872-67.072-35.84-87.040l-109.568-109.568c77.824-184.32 225.28-331.776 409.6-409.6l108.544 108.544c20.48 20.48 58.88 36.352 87.040 36.352h205.824c28.058-0.307 50.688-23.091 50.688-51.2 0 0 0 0 0 0v0-171.52z" />
<glyph unicode="&#xe95a;" glyph-name="whatsapp" d="M872.992 811.2c-95.808 96-223.2 148.8-359.008 148.8-279.616 0-507.2-227.584-507.2-507.392 0-89.408 23.392-176.8 67.808-253.6l-72-263.008 268.992 70.592c74.208-40.384 157.6-61.792 242.4-61.792h0.192c0 0 0 0 0 0 279.616 0 507.392 227.616 507.392 507.392 0 135.616-52.8 263.008-148.608 359.008zM514.208 30.4v0c-75.808 0-150.016 20.384-214.816 58.784l-15.392 9.216-159.584-41.792 42.592 155.616-10.016 16c-42.4 67.008-64.608 144.608-64.608 224.384 0 232.608 189.184 421.792 422.016 421.792 112.608 0 218.592-44 298.208-123.584 79.616-79.808 123.392-185.6 123.392-298.4-0.192-232.8-189.408-422.016-421.792-422.016zM745.408 346.4c-12.608 6.4-75.008 36.992-86.592 41.216s-20 6.4-28.608-6.4c-8.384-12.608-32.8-41.216-40.192-49.792-7.392-8.384-14.784-9.6-27.392-3.2s-53.6 19.808-102.016 63.008c-37.6 33.6-63.2 75.2-70.592 87.808s-0.8 19.616 5.6 25.792c5.792 5.6 12.608 14.816 19.008 22.208s8.384 12.608 12.608 21.184c4.192 8.384 2.208 15.808-0.992 22.208s-28.608 68.8-39.008 94.208c-10.208 24.8-20.8 21.408-28.608 21.792-7.392 0.384-15.808 0.384-24.192 0.384s-22.208-3.2-33.792-15.808c-11.616-12.608-44.384-43.392-44.384-105.792s45.408-122.592 51.808-131.2c6.4-8.384 89.408-136.608 216.608-191.392 30.208-12.992 53.792-20.8 72.192-26.784 30.4-9.6 58.016-8.192 79.808-4.992 24.384 3.616 75.008 30.592 85.6 60.192s10.592 55.008 7.392 60.192c-3.008 5.6-11.392 8.8-24.192 15.2z" />
<glyph unicode="&#xe95b;" glyph-name="instagram" d="M512 867.808c136.8 0 152.992-0.608 206.784-3.008 50.016-2.208 76.992-10.592 95.008-17.6 23.808-9.216 40.992-20.416 58.784-38.208 18.016-18.016 28.992-35.008 38.4-58.816 7.008-18.016 15.392-45.184 17.6-95.008 2.4-54.016 3.008-70.208 3.008-206.816s-0.608-152.992-3.008-206.816c-2.208-50.016-10.592-76.992-17.6-95.008-9.216-23.808-20.384-40.992-38.208-58.784-18.016-18.016-35.008-28.992-58.784-38.4-18.016-7.008-45.216-15.392-95.008-17.6-54.016-2.4-70.208-3.008-206.816-3.008s-152.992 0.608-206.816 3.008c-50.016 2.208-76.992 10.592-95.008 17.6-23.808 9.216-40.992 20.384-58.816 38.208-18.016 18.016-28.992 35.008-38.4 58.784-7.008 18.016-15.392 45.216-17.6 95.008-2.4 54.016-3.008 70.208-3.008 206.816s0.608 152.992 3.008 206.816c2.208 50.016 10.592 76.992 17.6 95.008 9.216 23.808 20.416 40.992 38.208 58.816 18.016 18.016 35.008 28.992 58.816 38.4 18.016 7.008 45.184 15.392 95.008 17.6 53.792 2.4 70.016 3.008 206.816 3.008zM512 960c-139.008 0-156.384-0.608-211.008-3.008-54.4-2.4-91.808-11.2-124.192-23.808-33.792-13.184-62.4-30.592-90.784-59.2-28.608-28.416-46.016-56.992-59.2-90.592-12.608-32.608-21.408-69.792-23.808-124.192-2.4-54.816-3.008-72.192-3.008-211.2s0.608-156.384 3.008-211.008c2.4-54.4 11.2-91.808 23.808-124.192 13.216-33.792 30.592-62.4 59.2-90.784 28.384-28.384 56.992-46.016 90.592-59.008 32.608-12.608 69.792-21.408 124.192-23.808 54.592-2.4 72-3.008 211.008-3.008s156.416 0.608 211.008 3.008c54.4 2.4 91.808 11.2 124.192 23.808 33.6 12.992 62.208 30.592 90.592 59.008s46.016 56.992 59.008 90.592c12.608 32.608 21.408 69.792 23.808 124.192 2.4 54.592 3.008 72 3.008 211.008s-0.608 156.384-3.008 211.008c-2.4 54.4-11.2 91.808-23.808 124.192-12.608 34.016-30.016 62.592-58.592 91.008-28.384 28.384-56.992 46.016-90.592 59.008-32.608 12.608-69.792 21.408-124.192 23.808-54.784 2.592-72.192 3.2-211.2 3.2v0zM512 711.008c-145.184 0-263.008-117.792-263.008-263.008s117.792-263.008 263.008-263.008 263.008 117.792 263.008 263.008c0 145.184-117.792 263.008-263.008 263.008zM512 277.408c-94.208 0-170.592 76.384-170.592 170.592s76.384 170.592 170.592 170.592c94.208 0 170.592-76.384 170.592-170.592s-76.384-170.592-170.592-170.592zM846.784 721.408c0-33.92-27.488-61.408-61.408-61.408s-61.408 27.488-61.408 61.408c0 33.92 27.488 61.408 61.408 61.408s61.408-27.488 61.408-61.408z" />
<glyph unicode="&#xe95c;" glyph-name="youtube" d="M1013.792 652.8c0 0-10.016 70.592-40.8 101.6-39.008 40.8-82.592 40.992-102.592 43.392-143.2 10.4-358.208 10.4-358.208 10.4h-0.384c0 0-215.008 0-358.208-10.4-20-2.4-63.584-2.592-102.592-43.392-30.816-31.008-40.608-101.6-40.608-101.6s-10.208-82.816-10.208-165.792v-77.6c0-82.784 10.208-165.792 10.208-165.792s10.016-70.592 40.608-101.6c39.008-40.8 90.208-39.392 112.992-43.808 82.016-7.808 348.192-10.208 348.192-10.208s215.2 0.384 358.4 10.592c20 2.4 63.616 2.592 102.592 43.392 30.784 31.008 40.8 101.6 40.8 101.6s10.208 82.784 10.208 165.792v77.6c-0.192 82.816-10.4 165.792-10.4 165.792zM406.208 315.2v287.808l276.608-144.416-276.608-143.392z" />
<glyph unicode="&#xe95d;" glyph-name="ubicacion" d="M641.365 555.52c0-70.692-57.308-128-128-128s-128 57.308-128 128c0 70.692 57.308 128 128 128s128-57.308 128-128zM504.149 963.413h-4.779c-164.523 0-311.979-106.496-354.304-264.192-89.088-332.459 233.131-657.408 336.213-751.275 17.408-16.043 44.032-16.043 61.44 0 90.795 82.603 350.891 344.064 351.573 632.149 0.341 212.651-177.493 383.317-390.144 383.317zM513.365 313.173c-133.803 0-242.347 108.544-242.347 242.347s108.544 242.347 242.347 242.347c133.803 0 242.347-108.544 242.347-242.347s-108.544-242.347-242.347-242.347z" />
<glyph unicode="&#xe95e;" glyph-name="box-remove" d="M832 896h-640l-192-192v-672c0-17.664 14.336-32 32-32h960c17.664 0 32 14.336 32 32v672l-192 192zM640 320v-192h-256v192h-192l320 256 320-256h-192zM154.496 768l64 64h586.976l64-64h-714.976z" />
<glyph unicode="&#xe95f;" glyph-name="chat" d="M768 618.013v85.987h-512v-85.987h512zM597.987 362.013v85.987h-341.987v-85.987h341.987zM256 576v-85.987h512v85.987h-512zM853.987 874.013c45.992 0 83.997-38.005 83.997-83.997v-512c0-45.992-38.005-85.987-83.997-85.987h-597.987l-170.013-170.013v768c0 45.992 38.005 83.997 83.997 83.997h684.003z" />
<glyph unicode="&#xe960;" glyph-name="circle-down" d="M1024 448c0 282.784-229.216 512-512 512s-512-229.216-512-512 229.216-512 512-512 512 229.216 512 512zM96 448c0 229.76 186.24 416 416 416s416-186.24 416-416-186.24-416-416-416-416 186.24-416 416zM317.248 605.248l-90.528-90.528 285.248-285.248 285.248 285.248-90.496 90.496-194.752-194.752z" />
<glyph unicode="&#xe961;" glyph-name="circle-left" d="M512-64c282.784 0 512 229.216 512 512s-229.216 512-512 512-512-229.216-512-512 229.216-512 512-512zM512 864c229.76 0 416-186.24 416-416s-186.24-416-416-416-416 186.24-416 416 186.24 416 416 416zM669.248 642.752l-90.528 90.528-285.248-285.248 285.248-285.248 90.496 90.496-194.752 194.752z" />
<glyph unicode="&#xe962;" glyph-name="circle-right" d="M512 960c-282.784 0-512-229.216-512-512s229.216-512 512-512 512 229.216 512 512-229.216 512-512 512zM512 32c-229.76 0-416 186.24-416 416s186.24 416 416 416 416-186.24 416-416-186.24-416-416-416zM354.752 253.248l90.528-90.528 285.248 285.248-285.248 285.248-90.496-90.496 194.752-194.752z" />
<glyph unicode="&#xe963;" glyph-name="circle-up" d="M0 448c0-282.784 229.216-512 512-512s512 229.216 512 512-229.216 512-512 512-512-229.216-512-512zM928 448c0-229.76-186.24-416-416-416s-416 186.24-416 416 186.24 416 416 416 416-186.24 416-416zM706.752 290.752l90.528 90.528-285.248 285.248-285.248-285.248 90.496-90.496 194.752 194.752z" />
<glyph unicode="&#xe964;" glyph-name="cloud_done" d="M426.013 234.013l282.010 282.010-60.006 60.006-222.003-220.014-88.005 88.005-60.006-60.006zM825.988 531.997c110.007-7.987 198.012-100.001 198.012-211.997 0-117.994-95.993-213.987-213.987-213.987h-554.013c-142.014 0-256 113.986-256 256 0 132.008 100.001 239.996 228.001 254.011 54.009 101.99 160.007 173.992 283.999 173.992 155.999 0 283.999-110.007 313.988-257.989z" />
<glyph unicode="&#xe965;" glyph-name="cloud_download" d="M725.987 405.987h-128v170.013h-172.003v-170.013h-128l213.987-213.987zM825.988 531.997c110.007-7.987 198.012-100.001 198.012-211.997 0-117.994-95.993-213.987-213.987-213.987h-554.013c-142.014 0-256 113.986-256 256 0 132.008 100.001 239.996 228.001 254.011 54.009 101.99 160.007 173.992 283.999 173.992 155.999 0 283.999-110.007 313.988-257.989z" />
<glyph unicode="&#xe966;" glyph-name="cloud_upload" d="M597.987 405.987h128l-213.987 211.997-213.987-211.997h128v-172.003h172.003v172.003zM825.988 531.997c110.007-7.987 198.012-100.001 198.012-211.997 0-117.994-95.993-213.987-213.987-213.987h-554.013c-142.014 0-256 113.986-256 256 0 132.008 100.001 239.996 228.001 254.011 54.009 101.99 160.007 173.992 283.999 173.992 155.999 0 283.999-110.007 313.988-257.989z" />
<glyph unicode="&#xe967;" glyph-name="cog1" d="M933.792 349.76c-53.728 93.056-21.408 212.288 72.16 266.496l-100.64 174.304c-28.736-16.864-62.176-26.528-97.856-26.528-107.552 0-194.72 87.744-194.72 196h-201.248c0.256-33.408-8.064-67.296-25.952-98.24-53.728-93.056-173.152-124.704-266.848-70.752l-100.608-174.304c28.96-16.48 54.048-40.576 71.872-71.488 53.632-92.896 21.504-211.936-71.712-266.208l100.64-174.304c28.64 16.704 61.92 26.24 97.408 26.24 107.2 0 194.144-87.2 194.688-194.944h201.248c-0.096 33.088 8.288 66.56 25.952 97.216 53.632 92.896 172.768 124.608 266.4 71.008l100.64 174.304c-28.768 16.48-53.696 40.512-71.424 71.232zM512 240.672c-114.496 0-207.328 92.832-207.328 207.328s92.832 207.328 207.328 207.328c114.496 0 207.328-92.832 207.328-207.328s-92.832-207.328-207.328-207.328z" />
<glyph unicode="&#xe968;" glyph-name="coin-dollar" d="M480 896c-265.088 0-480-214.912-480-480s214.912-480 480-480c265.088 0 480 214.912 480 480s-214.912 480-480 480zM480 32c-212.064 0-384 171.936-384 384s171.936 384 384 384c212.064 0 384-171.936 384-384s-171.936-384-384-384zM512 448v128h128v64h-128v64h-64v-64h-128v-256h128v-128h-128v-64h128v-64h64v64h128v256h-128zM448 448h-64v128h64v-128zM576 256h-64v128h64v-128z" />
<glyph unicode="&#xe969;" glyph-name="comment" d="M768 618.013v85.987h-512v-85.987h512zM768 490.013v85.987h-512v-85.987h512zM768 362.013v85.987h-512v-85.987h512zM938.013 789.987v-768l-170.013 170.013h-597.987c-45.992 0-83.997 39.995-83.997 85.987v512c0 45.992 38.005 83.997 83.997 83.997h684.003c45.992 0 83.997-38.005 83.997-83.997z" />
<glyph unicode="&#xe96a;" glyph-name="crop_original" d="M595.997 436.005l150.001-201.991h-467.997l116.005 151.991 83.997-101.99zM810.013 149.987v595.997h-595.997v-595.997h595.997zM810.013 832c45.992 0 85.987-39.995 85.987-85.987v-595.997c0-45.992-39.995-85.987-85.987-85.987h-595.997c-45.992 0-85.987 39.995-85.987 85.987v595.997c0 45.992 39.995 85.987 85.987 85.987h595.997z" />
<glyph unicode="&#xe96b;" glyph-name="cross" d="M1014.656 137.344c0 0 0 0 0 0l-310.656 310.656 310.656 310.656c0 0 0 0 0 0 3.36 3.36 5.76 7.264 7.328 11.424 4.256 11.392 1.824 24.672-7.328 33.824l-146.752 146.752c-9.152 9.152-22.464 11.552-33.824 7.328-4.16-1.536-8.064-3.968-11.424-7.296 0 0 0 0 0 0l-310.656-310.656-310.656 310.656c0 0 0 0 0 0-3.36 3.328-7.264 5.76-11.424 7.296-11.392 4.256-24.672 1.824-33.824-7.328l-146.752-146.752c-9.152-9.152-11.552-22.464-7.328-33.824 1.568-4.16 3.968-8.064 7.328-11.424 0 0 0 0 0 0l310.656-310.656-310.656-310.656c0 0 0 0 0 0-3.328-3.36-5.76-7.264-7.328-11.424-4.256-11.36-1.824-24.672 7.328-33.824l146.752-146.752c9.152-9.152 22.464-11.552 33.824-7.328 4.16 1.568 8.064 3.968 11.424 7.328 0 0 0 0 0 0l310.656 310.656 310.656-310.656c0 0 0 0 0 0 3.36-3.36 7.264-5.76 11.424-7.328 11.392-4.256 24.672-1.824 33.824 7.328l146.752 146.752c9.152 9.152 11.584 22.464 7.328 33.824-1.568 4.16-3.968 8.064-7.328 11.424z" />
<glyph unicode="&#xe96c;" glyph-name="drafts" d="M512 405.987l351.993 220.014-351.993 206-351.993-206zM938.013 618.013v-426.013c0-45.992-38.005-85.987-83.997-85.987h-684.003c-45.992 0-83.997 39.995-83.997 85.987v426.013c0 29.989 16.004 60.006 39.995 73.991l385.989 226.011 385.989-226.011c23.991-14.014 39.995-44.003 39.995-73.991z" />
<glyph unicode="&#xe96d;" glyph-name="edit-pencil" d="M629.76 770.56l204.8-204.8-629.76-629.76h-204.8v204.8l629.76 629.76zM701.44 842.24l117.76 117.76 204.8-204.8-117.76-117.76-204.8 204.8z" />
<glyph unicode="&#xe96e;" glyph-name="error" d="M554.013 405.987v256h-83.997v-256h83.997zM554.013 234.013v85.987h-83.997v-85.987h83.997zM512 874.013c235.988 0 426.013-189.996 426.013-426.013s-189.996-426.013-426.013-426.013-426.013 189.996-426.013 426.013 189.996 426.013 426.013 426.013z" />
<glyph unicode="&#xe96f;" glyph-name="error_outline" d="M512 106.013c188.006 0 341.987 154.010 341.987 341.987s-154.010 341.987-341.987 341.987-341.987-154.010-341.987-341.987 154.010-341.987 341.987-341.987zM512 874.013c235.988 0 426.013-189.996 426.013-426.013s-189.996-426.013-426.013-426.013-426.013 189.996-426.013 426.013 189.996 426.013 426.013 426.013zM469.987 661.987h83.997v-256h-83.997v256zM469.987 320h83.997v-85.987h-83.997v85.987z" />
<glyph unicode="&#xe970;" glyph-name="eye" d="M512 768c-223.328 0-416.896-130.048-512-320 95.104-189.952 288.672-320 512-320s416.864 130.048 512 320c-95.104 189.952-288.672 320-512 320zM764.448 598.304c60.16-38.368 111.136-89.76 149.44-150.304-38.304-60.512-89.28-111.936-149.44-150.304-75.584-48.224-162.88-73.696-252.448-73.696s-176.864 25.472-252.448 73.696c-60.16 38.368-111.136 89.76-149.44 150.304 38.304 60.512 89.28 111.936 149.44 150.304 3.904 2.496 7.872 4.928 11.872 7.296-9.952-27.328-15.424-56.832-15.424-87.584 0-141.376 114.624-256 256-256s256 114.624 256 256c0 30.784-5.44 60.256-15.424 87.584 3.968-2.368 7.936-4.8 11.872-7.296v0zM512 544c0-53.024-42.976-96-96-96s-96 42.976-96 96 42.976 96 96 96 96-42.976 96-96z" />
<glyph unicode="&#xe971;" glyph-name="eye-blocked" d="M945.952 945.952c-18.752 18.752-49.12 18.752-67.872 0l-202.176-202.176c-51.936 15.744-106.944 24.224-163.904 24.224-223.328 0-416.896-130.048-512-320 41.12-82.112 100.64-153.024 173.024-207.104l-158.976-158.976c-18.752-18.752-18.752-49.12 0-67.872 9.376-9.376 21.664-14.048 33.952-14.048s24.576 4.672 33.952 14.048l864 864c18.752 18.752 18.752 49.152 0 67.872zM416 640c42.24 0 78.080-27.296 90.912-65.184l-121.728-121.728c-37.888 12.832-65.184 48.672-65.184 90.912 0 53.024 42.976 96 96 96zM110.112 448c38.304 60.512 89.28 111.936 149.44 150.304 3.904 2.496 7.872 4.928 11.872 7.296-9.952-27.328-15.424-56.832-15.424-87.584 0-54.88 17.28-105.728 46.688-147.424l-60.928-60.928c-52.448 36.832-97.216 83.872-131.648 138.336zM768 517.984c0 27.168-4.256 53.344-12.096 77.888l-321.792-321.792c24.576-7.84 50.752-12.096 77.92-12.096 141.376 0 256 114.624 256 256zM830.016 670.016l-69.376-69.376c1.28-0.8 2.528-1.568 3.776-2.368 60.16-38.368 111.136-89.76 149.44-150.304-38.304-60.512-89.28-111.936-149.44-150.304-75.584-48.224-162.88-73.696-252.448-73.696-38.656 0-76.896 4.768-113.952 14.048l-76.896-76.896c59.712-21.472 123.936-33.152 190.848-33.152 223.296 0 416.864 130.048 512 320-45.024 89.92-112.128 166.4-193.984 222.016z" />
<glyph unicode="&#xe972;" glyph-name="file_upload" d="M213.987 192h595.997v-85.987h-595.997v85.987zM384 277.987v256h-170.013l298.013 298.013 298.013-298.013h-170.013v-256h-256z" />
<glyph unicode="&#xe973;" glyph-name="find_in_page" d="M384 405.987c0 70.012 57.988 128 128 128s128-57.988 128-128-57.988-128-128-128-128 57.988-128 128zM853.987 124.006l-163.986 163.986c22.001 33.997 35.986 73.991 35.986 117.994 0 117.994-95.993 211.997-213.987 211.997s-213.987-94.003-213.987-211.997 95.993-213.987 213.987-213.987c44.003 0 83.997 14.014 117.994 35.986l188.006-189.996c-14.014-10.006-29.989-16.004-50-16.004h-512c-45.992 0-85.987 38.005-85.987 83.997l1.989 684.003c0 45.992 38.005 83.997 83.997 83.997h341.987l256-256v-494.007z" />
<glyph unicode="&#xe974;" glyph-name="get_app" d="M213.987 192h595.997v-85.987h-595.997v85.987zM810.013 576l-298.013-298.013-298.013 298.013h170.013v256h256v-256h170.013z" />
<glyph unicode="&#xe975;" glyph-name="image" d="M959.872 832c0.032-0.032 0.096-0.064 0.128-0.128v-767.776c-0.032-0.032-0.064-0.096-0.128-0.128h-895.776c-0.032 0.032-0.096 0.064-0.128 0.128v767.776c0.032 0.032 0.064 0.096 0.128 0.128h895.776zM960 896h-896c-35.2 0-64-28.8-64-64v-768c0-35.2 28.8-64 64-64h896c35.2 0 64 28.8 64 64v768c0 35.2-28.8 64-64 64v0zM832 672c0-53.024-42.976-96-96-96s-96 42.976-96 96 42.976 96 96 96 96-42.976 96-96zM896 128h-768v128l224 384 256-320h64l224 192z" />
<glyph unicode="&#xe976;" glyph-name="key" d="M627.712 358.912l-115.712-115.712h-102.4v-102.4h-102.4v-102.4l-102.4-102.4h-204.8v204.8l422.912 422.912c-8.397 26.675-13.21 57.344-13.21 89.19 0 169.677 137.523 307.2 307.2 307.2s307.2-137.523 307.2-307.2c0-169.677-137.523-307.2-307.2-307.2-31.795 0-62.515 4.813-91.341 13.824l2.202-0.563zM876.544 595.456c27.75 27.802 44.902 66.15 44.902 108.544 0 84.787-68.71 153.498-153.446 153.6v0c-42.394-0.051-80.794-17.254-108.544-45.056v0l217.088-217.088z" />
<glyph unicode="&#xe977;" glyph-name="key1" d="M704 960c-176.736 0-320-143.264-320-320 0-20.032 1.856-39.616 5.376-58.624l-389.376-389.376v-192c0-35.36 28.64-64 64-64h64v64h128v128h128v128h128l83.040 83.040c34.016-12.32 70.688-19.040 108.96-19.040 176.736 0 320 143.264 320 320s-143.264 320-320 320zM799.872 639.872c-53.024 0-96 42.976-96 96s42.976 96 96 96 96-42.976 96-96-42.976-96-96-96z" />
<glyph unicode="&#xe978;" glyph-name="label" d="M751.996 709.998l185.988-261.998-185.988-261.998c-16.004-22.001-42.013-35.986-70.012-35.986h-467.997c-45.992 0-85.987 38.005-85.987 83.997v428.003c0 45.992 39.995 83.997 85.987 83.997h467.997c27.999 0 54.009-14.014 70.012-35.986z" />
<glyph unicode="&#xe979;" glyph-name="label_outline" d="M682.013 234.013l151.991 213.987-151.991 213.987h-467.997v-428.003h467.997zM751.996 709.998l185.988-261.998-185.988-261.998c-16.004-22.001-42.013-35.986-70.012-35.986h-467.997c-45.992 0-85.987 38.005-85.987 83.997v428.003c0 45.992 39.995 83.997 85.987 83.997h467.997c27.999 0 54.009-14.014 70.012-35.986z" />
<glyph unicode="&#xe97a;" glyph-name="local_offer" d="M233.999 661.987c35.986 0 64.015 27.999 64.015 64.015s-27.999 64.015-64.015 64.015-64.015-27.999-64.015-64.015 27.999-64.015 64.015-64.015zM913.993 465.993c16.004-16.004 23.991-35.986 23.991-60.006s-7.987-44.003-23.991-60.006l-300.003-300.003c-16.004-16.004-35.986-23.991-60.006-23.991s-44.003 7.987-60.006 23.991l-384 384c-16.004 16.004-23.991 35.986-23.991 60.006v300.003c0 45.992 38.005 83.997 83.997 83.997h300.003c23.991 0 44.003-7.987 60.006-23.991z" />
<glyph unicode="&#xe97b;" glyph-name="pencil" d="M864 960c88.352 0 160-71.648 160-160 0-36.032-11.904-69.248-32-96l-64-64-224 224 64 64c26.752 20.096 59.968 32 96 32zM64 224l-64-288 288 64 592 592-224 224-592-592zM715.584 596.416l-448-448-55.168 55.168 448 448 55.168-55.168z" />
<glyph unicode="&#xe97c;" glyph-name="print" d="M768 832v-170.013h-512v170.013h512zM810.013 448c23.991 0 44.003 17.993 44.003 42.013s-20.012 44.003-44.003 44.003-42.013-20.012-42.013-44.003 17.993-42.013 42.013-42.013zM682.013 149.987v211.997h-339.997v-211.997h339.997zM810.013 618.013c70.012 0 128-57.988 128-128v-256h-170.013v-170.013h-512v170.013h-170.013v256c0 70.012 57.988 128 128 128h595.997z" />
<glyph unicode="&#xe97d;" glyph-name="printer1" d="M256 896h512v-128h-512v128zM960 704h-896c-35.2 0-64-28.8-64-64v-320c0-35.2 28.8-64 64-64h192v-256h512v256h192c35.2 0 64 28.8 64 64v320c0 35.2-28.8 64-64 64zM128 512c-35.36 0-64 28.64-64 64s28.64 64 64 64 64-28.64 64-64-28.64-64-64-64zM704 64h-384v320h384v-320z" />
<glyph unicode="&#xe97e;" glyph-name="save" d="M640 576v170.013h-426.013v-170.013h426.013zM512 149.987c70.012 0 128 57.988 128 128s-57.988 128-128 128-128-57.988-128-128 57.988-128 128-128zM725.987 832l170.013-170.013v-512c0-45.992-39.995-85.987-85.987-85.987h-595.997c-48.011 0-85.987 39.995-85.987 85.987v595.997c0 45.992 38.005 85.987 85.987 85.987h512z" />
<glyph unicode="&#xe97f;" glyph-name="save-disk" d="M0 857.6c0 56.32 46.080 102.4 102.4 102.4h716.8l204.8-204.8v-716.8c0-56.576-45.824-102.4-102.4-102.4v0h-819.2c-56.576 0-102.4 45.824-102.4 102.4v0 819.2zM256 857.6v-307.2h512v307.2h-512zM563.2 806.4h153.6v-204.8h-153.6v204.8z" />
<glyph unicode="&#xe980;" glyph-name="shopping_cart" d="M725.987 192c45.992 0 83.997-39.995 83.997-85.987s-38.005-83.997-83.997-83.997-85.987 38.005-85.987 83.997 39.995 85.987 85.987 85.987zM42.013 874.013h139.995l39.995-83.997h632.013c23.991 0 42.013-20.012 42.013-44.003 0-7.987-1.989-14.014-5.998-20.012l-151.991-276.012c-14.014-26.010-42.013-44.003-73.991-44.003h-317.996l-38.005-70.012-1.989-5.998c0-5.998 4.008-10.006 10.006-10.006h494.007v-85.987h-512c-45.992 0-83.997 39.995-83.997 85.987 0 14.014 4.008 27.999 10.006 39.995l57.988 105.999-154.010 323.994h-85.987v83.997zM298.013 192c45.992 0 85.987-39.995 85.987-85.987s-39.995-83.997-85.987-83.997-83.997 38.005-83.997 83.997 38.005 85.987 83.997 85.987z" />
<glyph unicode="&#xe981;" glyph-name="trash" d="M307.2 857.6l102.4 102.4h204.8l102.4-102.4h204.8v-102.4h-819.2v102.4h204.8zM153.6 652.8h716.8l-51.2-716.8h-614.4l-51.2 716.8zM409.6 550.4v-512h51.2v512h-51.2zM563.2 550.4v-512h51.2v512h-51.2z" />
<glyph unicode="&#xe982;" glyph-name="tuning" d="M870.4 140.8v-204.8h-102.4v204.8h-102.4v153.6h307.2v-153.6h-102.4zM51.2 499.2h307.2v-153.6h-307.2v153.6zM358.4 704h307.2v-153.6h-307.2v153.6zM153.6 960h102.4v-409.6h-102.4v409.6zM768 960h102.4v-614.4h-102.4v614.4zM460.8 960h102.4v-204.8h-102.4v204.8zM153.6 345.6h102.4v-409.6h-102.4v409.6zM460.8 550.4h102.4v-614.4h-102.4v614.4z" />
<glyph unicode="&#xe983;" glyph-name="visibility" d="M512 576c70.012 0 128-57.988 128-128s-57.988-128-128-128-128 57.988-128 128 57.988 128 128 128zM512 234.013c117.994 0 213.987 95.993 213.987 213.987s-95.993 213.987-213.987 213.987-213.987-95.993-213.987-213.987 95.993-213.987 213.987-213.987zM512 767.985c213.987 0 395.995-132.008 469.987-320.015-73.991-188.006-256-320.015-469.987-320.015s-395.995 132.008-469.987 320.015c73.991 188.006 256 320.015 469.987 320.015z" />
<glyph unicode="&#xe984;" glyph-name="visibility_off" d="M506.002 576h5.998c70.012 0 128-57.988 128-128v-7.987zM322.004 542.003c-14.014-27.999-23.991-60.006-23.991-94.003 0-117.994 95.993-213.987 213.987-213.987 33.997 0 66.004 10.006 94.003 23.991l-66.004 66.004c-7.987-1.989-17.993-4.008-27.999-4.008-70.012 0-128 57.988-128 128 0 10.006 1.989 20.012 4.008 27.999zM85.987 777.991l54.009 54.009 756.005-756.005-54.009-54.009c-47.982 47.367-96.256 94.413-144.004 142.014-57.988-23.991-120.013-35.986-185.988-35.986-213.987 0-395.995 132.008-469.987 320.015 33.997 83.997 89.995 155.999 160.007 211.997-39.029 38.971-77.297 78.702-116.005 117.994zM512 661.987c-27.999 0-54.009-5.998-78-16.004l-92.014 92.014c51.99 20.012 110.007 29.989 170.013 29.989 213.987 0 394.006-132.008 467.997-320.015-32.007-79.989-82.008-148.012-145.993-201.991l-123.992 123.992c10.006 23.991 16.004 50 16.004 78 0 117.994-95.993 213.987-213.987 213.987z" />
<glyph unicode="&#xe985;" glyph-name="logo-id-dos" d="M925.355 695.808c-136.192 60.416-380.587 66.219-407.893 66.56h-0.341l-17.067-39.595 1.024 0.341c5.803 1.024 11.947 1.365 17.749 1.365 60.075 0 108.885-48.811 108.885-108.885s-48.811-108.885-108.885-108.885c-35.84 0-69.632 17.749-89.771 47.445l-0.683 1.024-130.389-305.493-0.341-1.024h1.024c49.493 0 107.52-0.341 147.797-0.341h0.683l-22.187 133.12c0 0.341-5.12 25.259 11.947 35.84 16.725 10.581 318.805 135.168 340.992 144.043l-14.336-61.781-128.683-116.395-33.451-134.485h0.683c89.088 0 200.021 0.341 226.304 1.024 31.061 0.683 40.96 54.272 41.301 56.32 0.683 3.413 70.315 313.003 75.776 357.035 3.072 24.917-19.797 32.768-20.139 32.768zM984.747 749.397c-88.405 40.96-210.944 60.075-299.008 69.291-94.891 9.899-169.984 9.899-171.008 9.899s-76.117 0-171.008-9.899c-87.723-9.216-210.603-28.331-299.008-69.291-0.341-0.341-43.349-18.773-39.253-67.584 5.461-54.272 89.088-458.411 90.112-462.848 0-0.683 14.677-67.925 68.267-69.632 35.499-1.024 199.339-1.365 293.888-1.365 1.365 0 2.731 0 4.437 0l13.653-83.968h-126.635c-0.683 0-4.096 0-5.461-3.755l-55.296-65.195v-0.341c0-0.683 0-1.365 0.341-1.707 0.341-0.683 1.365-0.683 1.365-0.683h449.536c0.341 0 1.024 0 1.365 0.683 0.341 0.341 0.683 1.024 0.341 2.048v0.341l-55.637 64.853c-2.048 3.755-6.144 4.096-7.168 4.096-0.341 0-0.341 0-0.341 0h-110.251l-10.581-29.013c-1.365-1.365-15.701-14.336-36.181-14.336-10.24 0-19.797 3.413-29.696 9.216 8.533-4.437 17.408-6.485 25.6-6.485 21.163 0 33.451 13.653 33.451 13.995v0l27.307 110.251c95.232 0 252.928 0.341 288.085 1.365 53.589 1.707 67.925 68.608 68.267 69.632 0.683 4.096 84.309 408.235 89.429 462.507 4.779 48.811-38.229 67.925-38.912 67.925zM77.483 713.557c151.893 69.973 434.517 73.045 437.589 73.045s285.696-3.755 437.931-73.045c1.024-0.341 23.893-7.851 21.163-34.816-5.461-48.128-79.872-389.12-80.555-392.533 0-0.683-10.581-60.416-43.008-61.099-44.032-1.024-332.117-1.024-335.189-1.024-2.731 0-290.816 0.341-335.189 1.024-32.085 0.683-42.667 60.416-43.008 61.099-0.683 3.413-75.435 344.064-80.555 392.533-3.072 26.624 19.797 34.475 20.821 34.816zM136.192 398.165l148.821 345.088c-7.168-1.024-13.995-2.048-21.504-3.755l-134.144-310.955c2.389-10.581 4.437-20.48 6.827-30.379zM334.165 749.739l-182.613-422.912c3.413-15.36 5.461-24.235 5.461-24.235s3.413-18.091 11.605-33.792l209.579 485.035c-13.995-1.024-29.013-2.389-44.032-4.096z" />
<glyph unicode="&#xe986;" glyph-name="lupa" d="M0 543.232c2.048-224.256 185.685-407.552 409.941-409.259 76.459-0.341 148.139 19.797 209.579 55.296 9.557 5.461 21.845 3.755 29.696-4.096l221.525-222.891c35.157-35.157 92.16-35.499 127.317-0.341v0c35.157 34.816 35.157 92.16 0.341 126.976l-223.232 224.256c-7.168 7.509-8.533 18.773-3.413 27.989 35.499 61.781 55.296 133.461 54.613 209.92-2.389 224.256-185.344 406.869-409.259 408.917-231.083 2.048-418.816-185.685-417.109-416.768zM101.717 546.987c0 172.032 139.605 311.637 311.637 311.637s311.637-139.605 311.637-311.637-139.605-311.637-311.637-311.637-311.637 139.605-311.637 311.637zM566.272 598.528c7.509-20.821 27.307-34.816 50.859-28.331 20.139 5.461 36.523 29.696 28.672 50.517-4.437 11.947-10.24 23.893-16.384 35.157-24.576 44.032-60.757 83.968-105.131 108.203-70.315 38.571-152.576 34.816-225.963 6.827-20.821-7.851-35.157-27.648-28.672-50.517 5.461-20.139 29.696-36.523 50.517-28.672 12.288 4.779 24.917 8.875 37.888 12.288 5.803 1.707 11.605 3.072 17.749 4.096 2.731 0.341 5.803 1.024 8.533 1.365-3.755-0.341-3.413-0.341 1.707 0.341 10.581 1.024 21.163 1.365 31.744 1.024 4.779 0 9.899-0.683 14.677-1.024-9.899 1.024 4.779-1.024 6.485-1.365 8.875-1.707 17.408-4.437 25.941-7.168 2.048-0.683 4.096-1.707 6.144-2.389-4.779 2.048-5.12 2.048-1.024 0.341 3.755-1.707 7.509-3.413 11.264-5.461 7.168-3.755 13.653-8.192 20.48-12.629 9.557-6.485-2.048 2.048 3.072-2.389 2.731-2.389 5.803-4.779 8.533-7.168 10.581-9.216 19.456-19.456 28.331-30.379-8.533 10.24 3.413-5.461 5.461-8.533 3.072-4.437 5.803-8.875 8.533-13.653 3.755-6.827 7.509-13.995 10.923-21.163 5.461-11.264-3.755 9.899-0.341 0.683v0z" />
<glyph unicode="&#xe987;" glyph-name="local_play" d="M663.991 243.99l-45.992 173.992 139.995 116.005-179.99 10.006-66.004 167.995-66.004-167.995-182.009-10.006 142.014-116.005-45.992-173.992 151.991 98.011zM853.987 448c0-45.992 38.005-85.987 83.997-85.987v-170.013c0-45.992-38.005-85.987-83.997-85.987h-684.003c-45.992 0-83.997 39.995-83.997 85.987v170.013c48.011 0 83.997 39.995 83.997 85.987s-38.005 85.987-83.997 85.987v170.013c0 45.992 38.005 85.987 83.997 85.987h684.003c45.992 0 83.997-39.995 83.997-85.987v-170.013c-45.992 0-83.997-39.995-83.997-85.987z" />
<glyph unicode="&#xe988;" glyph-name="newspaper" d="M896 704v128h-896v-704c0-35.36 28.64-64 64-64h864c53.024 0 96 42.976 96 96v544h-128zM832 128h-768v640h768v-640zM128 640h640v-64h-640zM512 512h256v-64h-256zM512 384h256v-64h-256zM512 256h192v-64h-192zM128 512h320v-320h-320z" />
<glyph unicode="&#xe989;" glyph-name="settings" d="M512 297.999c82.008 0 150.001 67.994 150.001 150.001s-67.994 150.001-150.001 150.001-150.001-67.994-150.001-150.001 67.994-150.001 150.001-150.001zM829.996 405.987l89.995-70.012c7.987-5.998 10.006-17.993 4.008-27.999l-85.987-148.012c-5.998-10.006-16.004-11.995-26.010-7.987l-105.999 42.013c-22.001-16.004-45.992-32.007-72.002-42.013l-16.004-111.996c-1.989-10.006-10.006-17.993-20.012-17.993h-172.003c-10.006 0-17.993 7.987-20.012 17.993l-16.004 111.996c-26.010 10.006-50 23.991-72.002 42.013l-105.999-42.013c-10.006-4.008-20.012-1.989-26.010 7.987l-85.987 148.012c-5.998 10.006-4.008 22.001 4.008 27.999l89.995 70.012c-1.989 14.014-1.989 27.999-1.989 42.013s0 27.999 1.989 42.013l-89.995 70.012c-7.987 5.998-10.006 17.993-4.008 27.999l85.987 148.012c5.998 10.006 16.004 11.995 26.010 7.987l105.999-42.013c22.001 16.004 45.992 32.007 72.002 42.013l16.004 111.996c1.989 10.006 10.006 17.993 20.012 17.993h172.003c10.006 0 17.993-7.987 20.012-17.993l16.004-111.996c26.010-10.006 50-23.991 72.002-42.013l105.999 42.013c10.006 4.008 20.012 1.989 26.010-7.987l85.987-148.012c5.998-10.006 4.008-22.001-4.008-27.999l-89.995-70.012c1.989-14.014 1.989-27.999 1.989-42.013s0-27.999-1.989-42.013z" />
<glyph unicode="&#xe98a;" glyph-name="add-outline" d="M563.2 499.2h204.8v-102.4h-204.8v-204.8h-102.4v204.8h-204.8v102.4h204.8v204.8h102.4v-204.8zM512-64c-282.778 0-512 229.222-512 512s229.222 512 512 512v0c282.778 0 512-229.222 512-512s-229.222-512-512-512v0zM512 38.4c226.202 0 409.6 183.398 409.6 409.6s-183.398 409.6-409.6 409.6v0c-226.202 0-409.6-183.398-409.6-409.6s183.398-409.6 409.6-409.6v0z" />
<glyph unicode="&#xe98b;" glyph-name="apps" d="M682.013 106.013v172.003h172.003v-172.003h-172.003zM682.013 362.013v172.003h172.003v-172.003h-172.003zM426.013 618.013v172.003h172.003v-172.003h-172.003zM682.013 789.987h172.003v-172.003h-172.003v172.003zM426.013 362.013v172.003h172.003v-172.003h-172.003zM170.013 362.013v172.003h172.003v-172.003h-172.003zM170.013 106.013v172.003h172.003v-172.003h-172.003zM426.013 106.013v172.003h172.003v-172.003h-172.003zM170.013 618.013v172.003h172.003v-172.003h-172.003z" />
<glyph unicode="&#xe98c;" glyph-name="arrow_back" d="M853.987 490.013v-83.997h-519.987l238.007-239.996-60.006-60.006-341.987 341.987 341.987 341.987 60.006-60.006-238.007-239.996h519.987z" />
<glyph unicode="&#xe98d;" glyph-name="arrow_downward" d="M853.987 448l-341.987-341.987-341.987 341.987 61.996 60.006 238.007-238.007v519.987h83.997v-519.987l239.996 238.007z" />
<glyph unicode="&#xe98e;" glyph-name="arrow_forward" d="M512 789.987l341.987-341.987-341.987-341.987-60.006 60.006 238.007 239.996h-519.987v83.997h519.987l-238.007 239.996z" />
<glyph unicode="&#xe98f;" glyph-name="arrow_upward" d="M170.013 448l341.987 341.987 341.987-341.987-61.996-60.006-238.007 238.007v-519.987h-83.997v519.987l-239.996-238.007z" />
<glyph unicode="&#xe990;" glyph-name="arrow-down2" d="M460.8 131.994l-310.835 310.835-72.397-72.397 434.432-434.432 434.432 434.432-72.397 72.397-310.835-310.835v828.006h-102.4z" />
<glyph unicode="&#xe991;" glyph-name="arrow-down21" d="M877.248 338.752l-320-320c-24.992-24.992-65.504-24.992-90.496 0l-320 320c-24.992 24.992-24.992 65.504 0 90.496s65.504 24.992 90.496 0l210.752-210.752v613.504c0 35.36 28.64 64 64 64s64-28.64 64-64v-613.504l210.752 210.752c12.48 12.48 28.864 18.752 45.248 18.752s32.768-6.24 45.248-18.752c24.992-24.992 24.992-65.504 0-90.496z" />
<glyph unicode="&#xe992;" glyph-name="arrow-down-left2" d="M786.752 813.248l-530.752-530.752v229.504c0 35.36-28.64 64-64 64s-64-28.64-64-64v-384c0-25.888 15.584-49.216 39.52-59.136 7.936-3.296 16.256-4.832 24.48-4.832v-0.032h384c35.36 0 64 28.64 64 64s-28.64 64-64 64h-229.504l530.752 530.752c12.48 12.512 18.752 28.864 18.752 45.248s-6.24 32.768-18.752 45.248c-24.992 24.992-65.504 24.992-90.496 0v0z" />
<glyph unicode="&#xe993;" glyph-name="arrow-down-right2" d="M146.752 722.752l530.752-530.752h-229.472c-35.36 0-64-28.64-64-64s28.64-64 64-64h384c25.888 0 49.216 15.584 59.136 39.52 3.296 7.936 4.832 16.256 4.832 24.48h0.032v384c0 35.36-28.64 64-64 64s-64-28.64-64-64v-229.504l-530.752 530.752c-12.512 12.512-28.864 18.752-45.248 18.752s-32.768-6.24-45.248-18.752c-24.992-24.992-24.992-65.504 0-90.496z" />
<glyph unicode="&#xe994;" glyph-name="arrow-left2" d="M195.994 499.2l310.835 310.835-72.397 72.397-434.432-434.432 434.432-434.432 72.397 72.397-310.835 310.835h828.006v102.4h-828.006z" />
<glyph unicode="&#xe995;" glyph-name="arrow-outline-down" d="M512-64c-282.778 0-512 229.222-512 512s229.222 512 512 512v0c282.778 0 512-229.222 512-512s-229.222-512-512-512v0zM512 38.4c226.202 0 409.6 183.398 409.6 409.6s-183.398 409.6-409.6 409.6v0c-226.202 0-409.6-183.398-409.6-409.6s183.398-409.6 409.6-409.6v0zM409.6 448v256h204.8v-256h153.6l-256-256-256 256h153.6z" />
<glyph unicode="&#xe996;" glyph-name="arrow-outline-left" d="M0 448c0 282.778 229.222 512 512 512s512-229.222 512-512v0c0-282.778-229.222-512-512-512s-512 229.222-512 512v0zM102.4 448c0-226.202 183.398-409.6 409.6-409.6s409.6 183.398 409.6 409.6v0c0 226.202-183.398 409.6-409.6 409.6s-409.6-183.398-409.6-409.6v0zM512 550.4h256v-204.8h-256v-153.6l-256 256 256 256v-153.6z" />
<glyph unicode="&#xe997;" glyph-name="arrow-outline-right" d="M1024 448c0-282.778-229.222-512-512-512s-512 229.222-512 512v0c0 282.778 229.222 512 512 512s512-229.222 512-512v0zM921.6 448c0 226.202-183.398 409.6-409.6 409.6s-409.6-183.398-409.6-409.6v0c0-226.202 183.398-409.6 409.6-409.6s409.6 183.398 409.6 409.6v0zM512 345.6h-256v204.8h256v153.6l256-256-256-256v153.6z" />
<glyph unicode="&#xe998;" glyph-name="arrow-outline-up" d="M512 960c282.778 0 512-229.222 512-512s-229.222-512-512-512v0c-282.778 0-512 229.222-512 512s229.222 512 512 512v0zM512 857.6c-226.202 0-409.6-183.398-409.6-409.6s183.398-409.6 409.6-409.6v0c226.202 0 409.6 183.398 409.6 409.6s-183.398 409.6-409.6 409.6v0zM614.4 448v-256h-204.8v256h-153.6l256 256 256-256h-153.6z" />
<glyph unicode="&#xe999;" glyph-name="assignment_late" d="M512 746.013c23.991 0 42.013 20.012 42.013 44.003s-17.993 42.013-42.013 42.013-42.013-17.993-42.013-42.013 17.993-44.003 42.013-44.003zM554.013 362.013v256h-83.997v-256h83.997zM554.013 192v85.987h-83.997v-85.987h83.997zM810.013 832c45.992 0 85.987-39.995 85.987-85.987v-595.997c0-45.992-39.995-85.987-85.987-85.987h-595.997c-45.992 0-85.987 39.995-85.987 85.987v595.997c0 45.992 39.995 85.987 85.987 85.987h178c17.993 50 64.015 85.987 120.013 85.987s101.99-35.986 120.013-85.987h178z" />
<glyph unicode="&#xe99a;" glyph-name="assignment_return" d="M682.013 320v170.013h-170.013v128l-213.987-211.997 213.987-213.987v128h170.013zM512 832c-23.991 0-42.013-17.993-42.013-42.013s17.993-44.003 42.013-44.003 42.013 20.012 42.013 44.003-17.993 42.013-42.013 42.013zM810.013 832c45.992 0 85.987-39.995 85.987-85.987v-595.997c0-45.992-39.995-85.987-85.987-85.987h-595.997c-45.992 0-85.987 39.995-85.987 85.987v595.997c0 45.992 39.995 85.987 85.987 85.987h178c17.993 50 64.015 85.987 120.013 85.987s101.99-35.986 120.013-85.987h178z" />
<glyph unicode="&#xe99b;" glyph-name="assignment_returned" d="M512 192l213.987 213.987h-128v170.013h-172.003v-170.013h-128zM512 832c-23.991 0-42.013-17.993-42.013-42.013s17.993-44.003 42.013-44.003 42.013 20.012 42.013 44.003-17.993 42.013-42.013 42.013zM810.013 832c45.992 0 85.987-39.995 85.987-85.987v-595.997c0-45.992-39.995-85.987-85.987-85.987h-595.997c-45.992 0-85.987 39.995-85.987 85.987v595.997c0 45.992 39.995 85.987 85.987 85.987h178c17.993 50 64.015 85.987 120.013 85.987s101.99-35.986 120.013-85.987h178z" />
<glyph unicode="&#xe99c;" glyph-name="assignment_turned_in" d="M426.013 234.013l341.987 341.987-60.006 60.006-282.010-279.991-110.007 110.007-60.006-60.006zM512 832c-23.991 0-42.013-17.993-42.013-42.013s17.993-44.003 42.013-44.003 42.013 20.012 42.013 44.003-17.993 42.013-42.013 42.013zM810.013 832c45.992 0 85.987-39.995 85.987-85.987v-595.997c0-45.992-39.995-85.987-85.987-85.987h-595.997c-45.992 0-85.987 39.995-85.987 85.987v595.997c0 45.992 39.995 85.987 85.987 85.987h178c17.993 50 64.015 85.987 120.013 85.987s101.99-35.986 120.013-85.987h178z" />
<glyph unicode="&#xe99d;" glyph-name="assistant" d="M591.989 409.995l176.011 79.989-176.011 79.989-79.989 176.011-79.989-176.011-176.011-79.989 176.011-79.989 79.989-176.011zM810.013 874.013c45.992 0 85.987-38.005 85.987-83.997v-597.987c0-45.992-39.995-85.987-85.987-85.987h-170.013l-128-128-128 128h-170.013c-45.992 0-85.987 39.995-85.987 85.987v597.987c0 45.992 39.995 83.997 85.987 83.997h595.997z" />
<glyph unicode="&#xe99e;" glyph-name="backspace" d="M0 448l358.4 358.4h665.6v-716.8h-665.6l-358.4 358.4zM737.792 448l109.056 108.544-72.704 72.704-108.544-109.568-108.544 109.056-72.704-72.704 109.568-108.032-109.056-108.544 72.704-72.704 108.032 109.568 108.544-109.056 72.704 72.704-109.568 108.032z" />
<glyph unicode="&#xe99f;" glyph-name="backspace1" d="M810.013 293.99l-151.991 154.010 151.991 154.010-60.006 60.006-151.991-154.010-154.010 154.010-60.006-60.006 154.010-154.010-154.010-154.010 60.006-60.006 154.010 154.010 151.991-154.010zM938.013 832c45.992 0 85.987-39.995 85.987-85.987v-595.997c0-45.992-39.995-85.987-85.987-85.987h-640c-29.989 0-51.99 16.004-67.994 38.005l-229.99 345.995 229.99 345.995c16.004 22.001 38.005 38.005 67.994 38.005h640z" />
<glyph unicode="&#xe9a0;" glyph-name="books" horiz-adv-x="1152" d="M224 832h-192c-17.6 0-32-14.4-32-32v-704c0-17.6 14.4-32 32-32h192c17.6 0 32 14.4 32 32v704c0 17.6-14.4 32-32 32zM192 640h-128v64h128v-64zM544 832h-192c-17.6 0-32-14.4-32-32v-704c0-17.6 14.4-32 32-32h192c17.6 0 32 14.4 32 32v704c0 17.6-14.4 32-32 32zM512 640h-128v64h128v-64zM765.088 782.528l-171.456-86.4c-15.712-7.904-22.112-27.264-14.176-42.976l287.968-571.552c7.904-15.712 27.264-22.112 42.976-14.176l171.456 86.4c15.712 7.904 22.112 27.264 14.176 42.976l-287.968 571.552c-7.904 15.712-27.264 22.112-42.976 14.176z" />
<glyph unicode="&#xe9a1;" glyph-name="border_color" d="M0 106.013h1024v-170.013h-1024v170.013zM884.005 787.997l-83.997-83.997-160.007 160.007 83.997 83.997c16.004 16.004 44.003 16.004 60.006 0l100.001-100.001c16.004-16.004 16.004-44.003 0-60.006zM757.994 661.987l-428.003-428.003h-160.007v160.007l428.003 428.003z" />
<glyph unicode="&#xe9a2;" glyph-name="cancel-circle" d="M512 960c-282.784 0-512-229.216-512-512s229.216-512 512-512 512 229.216 512 512-229.216 512-512 512zM512 32c-229.76 0-416 186.24-416 416s186.24 416 416 416 416-186.24 416-416-186.24-416-416-416zM672 704l-160-160-160 160-96-96 160-160-160-160 96-96 160 160 160-160 96 96-160 160 160 160z" />
<glyph unicode="&#xe9a3;" glyph-name="card_membership" d="M853.987 533.987v256h-684.003v-256h684.003zM853.987 320v85.987h-684.003v-85.987h684.003zM853.987 874.013c48.011 0 83.997-35.986 83.997-83.997v-469.987c0-48.011-35.986-85.987-83.997-85.987h-172.003v-211.997l-170.013 83.997-170.013-83.997v211.997h-172.003c-48.011 0-83.997 38.005-83.997 85.987v469.987c0 48.011 35.986 83.997 83.997 83.997h684.003z" />
<glyph unicode="&#xe9a4;" glyph-name="cart" d="M384 32c0-53.024-42.976-96-96-96s-96 42.976-96 96c0 53.024 42.976 96 96 96s96-42.976 96-96zM1024 32c0-53.024-42.976-96-96-96s-96 42.976-96 96c0 53.024 42.976 96 96 96s96-42.976 96-96zM1024 448v384h-768c0 35.36-28.64 64-64 64h-192v-64h128l48.064-412.064c-29.28-23.456-48.064-59.488-48.064-99.936 0-70.688 57.312-128 128-128h768v64h-768c-35.36 0-64 28.64-64 64 0 0.224 0 0.448 0 0.64l832 127.36z" />
<glyph unicode="&#xe9a5;" glyph-name="cheveron-down" d="M475.802 296.96l36.198-36.198 289.638 289.638-72.397 72.397-217.242-217.19-217.242 217.19-72.397-72.397z" />
<glyph unicode="&#xe9a6;" glyph-name="cheveron-left" d="M360.96 484.198l-36.198-36.198 289.638-289.638 72.397 72.397-217.19 217.242 217.19 217.242-72.397 72.397z" />
<glyph unicode="&#xe9a7;" glyph-name="cheveron-right" d="M663.040 411.802l36.198 36.198-289.638 289.638-72.397-72.397 217.19-217.242-217.19-217.242 72.397-72.397 253.44 253.44z" />
<glyph unicode="&#xe9a8;" glyph-name="cheveron-up" d="M548.198 599.040l-36.198 36.198-289.638-289.638 72.397-72.397 217.242 217.19 217.242-217.19 72.397 72.397z" />
<glyph unicode="&#xe9a9;" glyph-name="create_new_folder" d="M810.013 362.013v85.987h-128v128h-83.997v-128h-128v-85.987h128v-128h83.997v128h128zM853.987 704c48.011 0 83.997-38.005 83.997-85.987v-426.013c0-48.011-35.986-85.987-83.997-85.987h-684.003c-48.011 0-83.997 38.005-83.997 85.987v512c0 48.011 35.986 85.987 83.997 85.987h256l85.987-85.987h341.987z" />
<glyph unicode="&#xe9aa;" glyph-name="delete_sweep" d="M597.987 746.013v-83.997h-512v83.997h128l42.013 44.003h170.013l44.003-44.003h128zM128 192v426.013h426.013v-426.013c0-45.992-38.005-85.987-83.997-85.987h-256c-45.992 0-85.987 39.995-85.987 85.987zM640 448h256v-85.987h-256v85.987zM640 618.013h298.013v-83.997h-298.013v83.997zM640 277.987h170.013v-85.987h-170.013v85.987z" />
<glyph unicode="&#xe9ab;" glyph-name="description" d="M554.013 576h235.988l-235.988 233.999v-233.999zM682.013 362.013v85.987h-339.997v-85.987h339.997zM682.013 192v85.987h-339.997v-85.987h339.997zM597.987 874.013l256-256v-512c0-45.992-39.995-83.997-85.987-83.997h-512c-45.992 0-85.987 38.005-85.987 83.997l1.989 684.003c0 45.992 38.005 83.997 83.997 83.997h341.987z" />
<glyph unicode="&#xe9ac;" glyph-name="favorite" d="M512 49.986l-61.996 55.998c-220.014 200.002-363.988 329.991-363.988 491.988 0 132.008 101.99 233.999 233.999 233.999 73.991 0 145.993-35.986 192.015-89.995 45.992 54.009 117.994 89.995 192.015 89.995 132.008 0 233.999-101.99 233.999-233.999 0-161.997-144.004-294.005-363.988-494.007z" />
<glyph unicode="&#xe9ad;" glyph-name="favorite_border" d="M516.008 168.009c204.010 183.998 338.008 306 338.008 429.992 0 85.987-64.015 148.012-150.001 148.012-66.004 0-129.989-42.013-151.991-100.001h-79.989c-22.001 57.988-85.987 100.001-151.991 100.001-85.987 0-150.001-61.996-150.001-148.012 0-123.992 133.998-245.994 338.008-429.992l4.008-4.008zM704.015 832c132.008 0 233.999-101.99 233.999-233.999 0-161.997-144.004-291.986-363.988-491.988l-61.996-55.998-61.996 54.009c-220.014 200.002-363.988 332.010-363.988 494.007 0 132.008 101.99 233.999 233.999 233.999 73.991 0 145.993-35.986 192.015-89.995 45.992 54.009 117.994 89.995 192.015 89.995z" />
<glyph unicode="&#xe9ae;" glyph-name="file-word" d="M639.776 484.096h44.224l-51.008-226.176-66.336 318.016h-106.56l-77.12-318.016-57.824 318.016h-111.392l113.088-511.872h108.832l76.288 302.72 68.256-302.72h100.352l129.632 511.872h-170.432v-91.84zM917.792 730.912c-22.208 30.304-53.184 65.696-87.168 99.712s-69.408 64.96-99.712 87.168c-51.584 37.824-76.576 42.208-90.912 42.208h-496c-44.096 0-80-35.872-80-80v-864c0-44.096 35.872-80 80-80h736c44.096 0 80 35.904 80 80v624c0 14.336-4.384 39.36-42.208 90.912v0zM785.376 785.376c30.688-30.688 54.784-58.4 72.576-81.376h-153.952v153.952c22.976-17.792 50.688-41.888 81.376-72.576v0zM896 16c0-8.672-7.328-16-16-16h-736c-8.672 0-16 7.328-16 16v864c0 8.672 7.328 16 16 16 0 0 495.968 0 496 0v-224c0-17.664 14.336-32 32-32h224v-624z" />
<glyph unicode="&#xe9af;" glyph-name="file-zip" d="M917.792 730.912c-22.208 30.304-53.184 65.696-87.168 99.712s-69.408 64.96-99.712 87.168c-51.584 37.824-76.576 42.208-90.912 42.208h-496c-44.096 0-80-35.872-80-80v-864c0-44.096 35.872-80 80-80h736c44.096 0 80 35.904 80 80v624c0 14.336-4.384 39.36-42.208 90.912v0 0zM785.376 785.376c30.688-30.688 54.784-58.4 72.576-81.376h-153.952v153.952c22.976-17.792 50.688-41.888 81.376-72.576v0 0zM896 16c0-8.672-7.328-16-16-16h-736c-8.672 0-16 7.328-16 16v864c0 8.672 7.328 16 16 16 0 0 495.968 0 496 0v-224c0-17.664 14.336-32 32-32h224v-624zM256 896h128v-64h-128v64zM384 832h128v-64h-128v64zM256 768h128v-64h-128v64zM384 704h128v-64h-128v64zM256 640h128v-64h-128v64zM384 576h128v-64h-128v64zM256 512h128v-64h-128v64zM384 448h128v-64h-128v64zM256 112c0-26.4 21.6-48 48-48h160c26.4 0 48 21.6 48 48v160c0 26.4-21.6 48-48 48h-80v64h-128v-272zM448 192v-64h-128v64h128z" />
<glyph unicode="&#xe9b0;" glyph-name="folder2" d="M426.013 789.987l85.987-85.987h341.987c45.992 0 83.997-39.995 83.997-85.987v-426.013c0-45.992-38.005-85.987-83.997-85.987h-684.003c-45.992 0-83.997 39.995-83.997 85.987v512c0 45.992 38.005 85.987 83.997 85.987h256z" />
<glyph unicode="&#xe9b1;" glyph-name="folder-outline" d="M0 755.2c0 56.32 46.080 102.4 102.4 102.4h358.4l102.4-102.4h358.4c56.576 0 102.4-45.824 102.4-102.4v0-512c0-56.576-45.824-102.4-102.4-102.4v0h-819.2c-56.576 0-102.4 45.824-102.4 102.4v0 614.4zM102.4 652.8v-512h819.2v512h-819.2z" />
<glyph unicode="&#xe9b2;" glyph-name="gift" d="M759.296 755.2h264.704v-307.2h-51.2v-512h-921.6v512h-51.2v307.2h264.704c-5.632 15.36-8.909 33.075-8.909 51.61 0 84.838 68.762 153.6 153.6 153.6 39.526 0 75.52-14.899 102.758-39.424l-0.154 0.102c27.085 24.371 63.13 39.322 102.605 39.322 84.838 0 153.6-68.762 153.6-153.6 0-18.483-3.277-36.25-9.267-52.685l0.358 1.075zM409.6 448h-256v-409.6h256v409.6zM614.4 448v-409.6h256v409.6h-256zM409.6 652.8h-307.2v-102.4h307.2v102.4zM614.4 652.8v-102.4h307.2v102.4h-307.2zM409.6 755.2c28.262 0 51.2 22.938 51.2 51.2s-22.938 51.2-51.2 51.2v0c-28.262 0-51.2-22.938-51.2-51.2s22.938-51.2 51.2-51.2v0zM614.4 755.2c28.262 0 51.2 22.938 51.2 51.2s-22.938 51.2-51.2 51.2v0c-28.262 0-51.2-22.938-51.2-51.2s22.938-51.2 51.2-51.2v0z" />
<glyph unicode="&#xe9b3;" glyph-name="insert_comment" d="M768 618.013v85.987h-512v-85.987h512zM768 490.013v85.987h-512v-85.987h512zM768 362.013v85.987h-512v-85.987h512zM853.987 874.013c45.992 0 83.997-38.005 83.997-83.997v-768l-170.013 170.013h-597.987c-45.992 0-83.997 39.995-83.997 85.987v512c0 45.992 38.005 83.997 83.997 83.997h684.003z" />
<glyph unicode="&#xe9b4;" glyph-name="keyboard" d="M0 652.8c0 56.32 46.080 102.4 102.4 102.4h819.2c56.576 0 102.4-45.824 102.4-102.4v0-409.6c0-56.576-45.824-102.4-102.4-102.4v0h-819.2c-56.576 0-102.4 45.824-102.4 102.4v0 409.6zM102.4 652.8v-102.4h102.4v102.4h-102.4zM153.6 499.2v-102.4h102.4v102.4h-102.4zM102.4 345.6v-102.4h102.4v102.4h-102.4zM256 345.6v-102.4h512v102.4h-512zM819.2 345.6v-102.4h102.4v102.4h-102.4zM307.2 499.2v-102.4h102.4v102.4h-102.4zM460.8 499.2v-102.4h102.4v102.4h-102.4zM614.4 499.2v-102.4h102.4v102.4h-102.4zM768 499.2v-102.4h102.4v102.4h-102.4zM256 652.8v-102.4h102.4v102.4h-102.4zM409.6 652.8v-102.4h102.4v102.4h-102.4zM563.2 652.8v-102.4h102.4v102.4h-102.4zM716.8 652.8v-102.4h204.8v102.4h-204.8z" />
<glyph unicode="&#xe9b5;" glyph-name="library" d="M0 652.8l512 307.2 512-307.2v-102.4h-1024v102.4zM0 38.4h1024v-102.4h-1024v102.4zM102.4 140.8h819.2v-102.4h-819.2v102.4zM102.4 550.4h204.8v-409.6h-204.8v409.6zM409.6 550.4h204.8v-409.6h-204.8v409.6zM716.8 550.4h204.8v-409.6h-204.8v409.6z" />
<glyph unicode="&#xe9b6;" glyph-name="lock1" d="M644.008 618.013v85.987c0 72.002-60.006 132.008-132.008 132.008s-132.008-60.006-132.008-132.008v-85.987h263.987zM512 234.013c45.992 0 85.987 39.995 85.987 85.987s-39.995 85.987-85.987 85.987-85.987-39.995-85.987-85.987 39.995-85.987 85.987-85.987zM768 618.013c45.992 0 85.987-38.005 85.987-83.997v-428.003c0-45.992-39.995-83.997-85.987-83.997h-512c-45.992 0-85.987 38.005-85.987 83.997v428.003c0 45.992 39.995 83.997 85.987 83.997h42.013v85.987c0 117.994 95.993 213.987 213.987 213.987s213.987-95.993 213.987-213.987v-85.987h42.013z" />
<glyph unicode="&#xe9b7;" glyph-name="lock-closed" d="M204.8 550.4v102.4c0 169.677 137.523 307.2 307.2 307.2s307.2-137.523 307.2-307.2v0-102.4h51.2c56.576 0 102.4-45.824 102.4-102.4v0-409.6c0-56.576-45.824-102.4-102.4-102.4v0h-716.8c-56.576 0-102.4 45.824-102.4 102.4v0 409.6c0 56.32 46.080 102.4 102.4 102.4h51.2zM460.8 205.824v-116.224h102.4v116.224c30.822 18.022 51.2 50.995 51.2 88.678 0 56.576-45.824 102.4-102.4 102.4s-102.4-45.824-102.4-102.4c0-37.683 20.378-70.656 50.739-88.422l0.461-0.256zM358.4 652.8v-102.4h307.2v102.4c0 84.838-68.762 153.6-153.6 153.6s-153.6-68.762-153.6-153.6v0z" />
<glyph unicode="&#xe9b8;" glyph-name="lock-open" d="M204.8 550.4v102.4c0 169.677 137.523 307.2 307.2 307.2s307.2-137.523 307.2-307.2v0h-153.6v-102.4h204.8c56.576 0 102.4-45.824 102.4-102.4v0-409.6c0-56.576-45.824-102.4-102.4-102.4v0h-716.8c-56.576 0-102.4 45.824-102.4 102.4v0 409.6c0 56.32 46.080 102.4 102.4 102.4h51.2zM460.8 205.824v-116.224h102.4v116.224c30.822 18.022 51.2 50.995 51.2 88.678 0 56.576-45.824 102.4-102.4 102.4s-102.4-45.824-102.4-102.4c0-37.683 20.378-70.656 50.739-88.422l0.461-0.256zM358.4 652.8v-102.4h307.2v102.4c0 84.838-68.762 153.6-153.6 153.6s-153.6-68.762-153.6-153.6v0z" />
<glyph unicode="&#xe9b9;" glyph-name="markunread" d="M853.987 618.013v85.987l-341.987-213.987-341.987 213.987v-85.987l341.987-211.997zM853.987 789.987c45.992 0 83.997-39.995 83.997-85.987v-512c0-45.992-38.005-85.987-83.997-85.987h-684.003c-45.992 0-83.997 39.995-83.997 85.987v512c0 45.992 38.005 85.987 83.997 85.987h684.003z" />
<glyph unicode="&#xe9ba;" glyph-name="markunread_mailbox" d="M853.987 704c45.992 0 83.997-39.995 83.997-85.987v-512c0-45.992-38.005-83.997-83.997-83.997h-684.003c-45.992 0-83.997 38.005-83.997 83.997v512c0 45.992 38.005 85.987 83.997 85.987h85.987v256h341.987v-170.013h-256v-341.987h83.997v256h428.003z" />
<glyph unicode="&#xe9bb;" glyph-name="message" d="M768 618.013v85.987h-512v-85.987h512zM768 490.013v85.987h-512v-85.987h512zM768 362.013v85.987h-512v-85.987h512zM853.987 874.013c45.992 0 83.997-38.005 83.997-83.997v-512c0-45.992-38.005-85.987-83.997-85.987h-597.987l-170.013-170.013v768c0 45.992 38.005 83.997 83.997 83.997h684.003z" />
<glyph unicode="&#xe9bc;" glyph-name="mic2" d="M738.011 490.013h72.002c0-145.993-116.005-266.006-256-285.989v-139.995h-83.997v139.995c-139.995 20.012-256 139.995-256 285.989h72.002c0-128 107.988-216.005 226.011-216.005s226.011 88.005 226.011 216.005zM512 362.013c-70.012 0-128 57.988-128 128v256c0 70.012 57.988 128 128 128s128-57.988 128-128v-256c0-70.012-57.988-128-128-128z" />
<glyph unicode="&#xe9bd;" glyph-name="no_encryption" d="M379.992 704v-51.99l-78 78c11.995 105.999 100.001 188.006 210.008 188.006 117.994 0 213.987-95.993 213.987-213.987v-85.987h42.013c45.992 0 85.987-38.005 85.987-83.997v-356.001l-441.988 439.998h232.009v85.987c0 72.002-60.006 132.008-132.008 132.008s-132.008-60.006-132.008-132.008zM896 30.003l-51.99-51.99-48.011 48.011c-7.987-1.989-17.993-4.008-27.999-4.008h-512c-45.992 0-85.987 38.005-85.987 83.997v428.003c0 32.007 20.012 60.006 45.992 73.991l-88.005 85.987 51.99 51.99z" />
<glyph unicode="&#xe9be;" glyph-name="notification" d="M204.8 550.4c0 0.051 0 0.102 0 0.154 0 133.53 85.197 247.142 204.186 289.485l2.15 0.666c-0.819 4.864-1.28 10.445-1.28 16.128 0 56.576 45.824 102.4 102.4 102.4s102.4-45.824 102.4-102.4c0-5.683-0.461-11.264-1.382-16.742l0.102 0.614c120.883-43.162 205.824-156.672 205.824-289.997 0-0.102 0-0.205 0-0.307v0-307.2l153.6-102.4v-51.2h-921.6v51.2l153.6 102.4v307.2zM614.4 38.4c0-56.576-45.824-102.4-102.4-102.4s-102.4 45.824-102.4 102.4v0h204.8z" />
<glyph unicode="&#xe9bf;" glyph-name="notifications_active" d="M512 21.987c-48.011 0-85.987 38.005-85.987 83.997h170.013c0-49.679-37.215-83.997-83.997-83.997zM768 490.013v-211.997l85.987-85.987v-42.013h-684.003v42.013l85.987 85.987v211.997c0 132.008 70.012 239.996 192.015 270.014v29.989c0 35.986 27.999 64.015 64.015 64.015s64.015-27.999 64.015-64.015v-29.989c122.002-29.989 192.015-139.995 192.015-270.014zM851.997 511.985c-5.998 113.986-64.015 211.997-150.001 273.993l60.006 60.006c101.99-78 170.013-198.012 176.011-334h-85.987zM323.994 786.008c-88.005-61.996-145.993-160.007-151.991-273.993h-85.987c5.998 135.987 73.991 256 176.011 334z" />
<glyph unicode="&#xe9c0;" glyph-name="notifications_off" d="M768 334.014l-382.011 401.993c10.006 4.008 20.012 10.006 29.989 14.014h1.989l11.995 5.998c5.998 1.989 11.995 1.989 17.993 4.008v29.989c0 35.986 27.999 64.015 64.015 64.015s64.015-27.999 64.015-64.015v-29.989c122.002-29.989 192.015-138.006 192.015-270.014v-155.999zM512 21.987c-48.011 0-85.987 35.986-85.987 83.997h172.003c0-48.011-38.005-83.997-85.987-83.997zM334 698.002c187.246-193.419 375.34-385.989 562-579.994l-54.009-54.009-85.987 85.987h-585.991v42.013l85.987 85.987v213.987c0 54.009 11.995 104.009 33.997 145.993l-120.013 117.994 54.009 55.998z" />
<glyph unicode="&#xe9c1;" glyph-name="panorama" d="M361.999 425.999l-148.012-192.015h595.997l-192.015 256-148.012-192.015zM981.987 192c0-45.992-39.995-85.987-85.987-85.987h-768c-45.992 0-85.987 39.995-85.987 85.987v512c0 45.992 39.995 85.987 85.987 85.987h768c45.992 0 85.987-39.995 85.987-85.987v-512z" />
<glyph unicode="&#xe9c2;" glyph-name="photo" d="M0 755.2c0 56.32 46.080 102.4 102.4 102.4h819.2c56.576 0 102.4-45.824 102.4-102.4v0-614.4c0-56.576-45.824-102.4-102.4-102.4v0h-819.2c-56.576 0-102.4 45.824-102.4 102.4v0 614.4zM563.2 294.4l-153.6 153.6-307.2-307.2h819.2l-256 256-102.4-102.4zM768 499.2c56.576 0 102.4 45.824 102.4 102.4s-45.824 102.4-102.4 102.4v0c-56.576 0-102.4-45.824-102.4-102.4s45.824-102.4 102.4-102.4v0z" />
<glyph unicode="&#xe9c3;" glyph-name="security" d="M512 917.987l384-172.003v-256c0-235.988-163.986-457.991-384-512-220.014 54.009-384 276.012-384 512v256zM512 448v-382.011c157.989 50 276.012 206 298.013 382.011h-298.013zM512 448v376.013l-298.013-132.008v-244.005h298.013z" />
</font>
</defs>
</svg>
